<?xml version="1.0" encoding="UTF-8"?>
<svg width="660px" height="135px" viewBox="0 0 660 135" version="1.1" xmlns="http://www.w3.org/2000/svg" xmlns:xlink="http://www.w3.org/1999/xlink">
    <!-- Generator: Sketch 47.1 (45422) - http://www.bohemiancoding.com/sketch -->
    <title>contact</title>
    <desc>Created with Sketch.</desc>
    <defs></defs>
    <g id="Page-1" stroke="none" stroke-width="1" fill="none" fill-rule="evenodd">
        <g id="Artboard" transform="translate(-1186.000000, -2461.000000)" fill="#111111">
            <path d="M1241.692,2503.042 L1241.692,2510.322 L1274.452,2510.322 L1274.452,2502.132 C1274.452,2495.82264 1273.69367,2490.15036 1272.177,2485.115 C1270.66033,2480.07964 1268.23368,2475.77235 1264.897,2472.193 C1261.56032,2468.61365 1257.22269,2465.85334 1251.884,2463.912 C1246.54531,2461.97066 1240.05404,2461 1232.41,2461 C1223.67396,2461 1216.33336,2462.18299 1210.388,2464.549 C1204.44264,2466.91501 1199.65002,2470.76731 1196.01,2476.106 C1192.36998,2481.44469 1189.79167,2488.42129 1188.275,2497.036 C1186.75833,2505.65071 1186,2516.14594 1186,2528.522 C1186,2540.65539 1186.63699,2550.99896 1187.911,2559.553 C1189.18501,2568.10704 1191.52065,2575.08364 1194.918,2580.483 C1198.31535,2585.88236 1203.0473,2589.73466 1209.114,2592.04 C1215.1807,2594.34534 1222.94595,2595.498 1232.41,2595.498 C1237.87003,2595.498 1243.17831,2594.92167 1248.335,2593.769 C1253.49169,2592.61633 1258.07198,2590.37168 1262.076,2587.035 C1266.08002,2583.69832 1269.29532,2579.11803 1271.722,2573.294 C1274.14868,2567.46997 1275.362,2560.00805 1275.362,2550.908 L1275.362,2541.262 L1242.602,2541.262 C1242.602,2547.45003 1242.45033,2552.57631 1242.147,2556.641 C1241.84367,2560.70569 1241.328,2563.95132 1240.6,2566.378 C1239.872,2568.80468 1238.84067,2570.53366 1237.506,2571.565 C1236.17133,2572.59634 1234.47268,2573.112 1232.41,2573.112 C1229.86199,2573.112 1227.82967,2572.44467 1226.313,2571.11 C1224.79633,2569.77533 1223.64367,2567.40935 1222.855,2564.012 C1222.06633,2560.61465 1221.55067,2556.03436 1221.308,2550.271 C1221.06533,2544.50764 1220.944,2537.25804 1220.944,2528.522 C1220.944,2519.78596 1221.06533,2512.53636 1221.308,2506.773 C1221.55067,2501.00964 1222.06633,2496.42935 1222.855,2493.032 C1223.64367,2489.63465 1224.79633,2487.26867 1226.313,2485.934 C1227.82967,2484.59933 1229.86199,2483.932 1232.41,2483.932 C1235.68602,2483.932 1238.05199,2485.26665 1239.508,2487.936 C1240.96401,2490.60535 1241.692,2495.64063 1241.692,2503.042 Z M1318.578,2528.522 C1318.578,2537.25804 1318.69933,2544.50764 1318.942,2550.271 C1319.18467,2556.03436 1319.70033,2560.61465 1320.489,2564.012 C1321.27767,2567.40935 1322.43033,2569.77533 1323.947,2571.11 C1325.46367,2572.44467 1327.49599,2573.112 1330.044,2573.112 C1332.59201,2573.112 1334.62433,2572.44467 1336.141,2571.11 C1337.65767,2569.77533 1338.81033,2567.40935 1339.599,2564.012 C1340.38767,2560.61465 1340.90333,2556.03436 1341.146,2550.271 C1341.38867,2544.50764 1341.51,2537.25804 1341.51,2528.522 C1341.51,2519.78596 1341.38867,2512.53636 1341.146,2506.773 C1340.90333,2501.00964 1340.38767,2496.42935 1339.599,2493.032 C1338.81033,2489.63465 1337.65767,2487.26867 1336.141,2485.934 C1334.62433,2484.59933 1332.59201,2483.932 1330.044,2483.932 C1327.49599,2483.932 1325.46367,2484.59933 1323.947,2485.934 C1322.43033,2487.26867 1321.27767,2489.63465 1320.489,2493.032 C1319.70033,2496.42935 1319.18467,2501.00964 1318.942,2506.773 C1318.69933,2512.53636 1318.578,2519.78596 1318.578,2528.522 Z M1283.634,2528.522 C1283.634,2516.38861 1284.42266,2506.04504 1286,2497.491 C1287.57734,2488.93696 1290.18598,2481.96036 1293.826,2476.561 C1297.46602,2471.16164 1302.25864,2467.21835 1308.204,2464.731 C1314.14936,2462.24365 1321.42929,2461 1330.044,2461 C1338.65871,2461 1345.93864,2462.24365 1351.884,2464.731 C1357.82936,2467.21835 1362.62198,2471.16164 1366.262,2476.561 C1369.90202,2481.96036 1372.51066,2488.93696 1374.088,2497.491 C1375.66534,2506.04504 1376.454,2516.38861 1376.454,2528.522 C1376.454,2540.65539 1375.66534,2550.99896 1374.088,2559.553 C1372.51066,2568.10704 1369.90202,2575.08364 1366.262,2580.483 C1362.62198,2585.88236 1357.82936,2589.73466 1351.884,2592.04 C1345.93864,2594.34534 1338.65871,2595.498 1330.044,2595.498 C1321.42929,2595.498 1314.14936,2594.34534 1308.204,2592.04 C1302.25864,2589.73466 1297.46602,2585.88236 1293.826,2580.483 C1290.18598,2575.08364 1287.57734,2568.10704 1286,2559.553 C1284.42266,2550.99896 1283.634,2540.65539 1283.634,2528.522 Z M1388.548,2463.548 L1388.548,2593.496 L1420.216,2593.496 L1420.216,2513.234 L1420.58,2513.234 L1443.148,2593.496 L1480.276,2593.496 L1480.276,2463.548 L1448.608,2463.548 L1448.608,2543.628 L1448.244,2543.628 L1426.404,2463.548 L1388.548,2463.548 Z M1513.3,2492.304 L1488.184,2492.304 L1488.184,2463.548 L1572.632,2463.548 L1572.632,2492.304 L1547.152,2492.304 L1547.152,2593.496 L1513.3,2593.496 L1513.3,2492.304 Z M1612.572,2490.12 L1603.29,2545.266 L1622.218,2545.266 L1612.936,2490.12 L1612.572,2490.12 Z M1634.048,2463.548 L1665.716,2593.496 L1629.68,2593.496 L1626.222,2570.746 L1599.286,2570.746 L1595.828,2593.496 L1560.338,2593.496 L1591.46,2463.548 L1634.048,2463.548 Z M1723.128,2503.042 L1723.128,2510.322 L1755.888,2510.322 L1755.888,2502.132 C1755.888,2495.82264 1755.12967,2490.15036 1753.613,2485.115 C1752.09633,2480.07964 1749.66968,2475.77235 1746.333,2472.193 C1742.99632,2468.61365 1738.65869,2465.85334 1733.32,2463.912 C1727.98131,2461.97066 1721.49004,2461 1713.846,2461 C1705.10996,2461 1697.76936,2462.18299 1691.824,2464.549 C1685.87864,2466.91501 1681.08602,2470.76731 1677.446,2476.106 C1673.80598,2481.44469 1671.22767,2488.42129 1669.711,2497.036 C1668.19433,2505.65071 1667.436,2516.14594 1667.436,2528.522 C1667.436,2540.65539 1668.07299,2550.99896 1669.347,2559.553 C1670.62101,2568.10704 1672.95665,2575.08364 1676.354,2580.483 C1679.75135,2585.88236 1684.4833,2589.73466 1690.55,2592.04 C1696.6167,2594.34534 1704.38195,2595.498 1713.846,2595.498 C1719.30603,2595.498 1724.61431,2594.92167 1729.771,2593.769 C1734.92769,2592.61633 1739.50798,2590.37168 1743.512,2587.035 C1747.51602,2583.69832 1750.73132,2579.11803 1753.158,2573.294 C1755.58468,2567.46997 1756.798,2560.00805 1756.798,2550.908 L1756.798,2541.262 L1724.038,2541.262 C1724.038,2547.45003 1723.88633,2552.57631 1723.583,2556.641 C1723.27967,2560.70569 1722.764,2563.95132 1722.036,2566.378 C1721.308,2568.80468 1720.27667,2570.53366 1718.942,2571.565 C1717.60733,2572.59634 1715.90868,2573.112 1713.846,2573.112 C1711.29799,2573.112 1709.26567,2572.44467 1707.749,2571.11 C1706.23233,2569.77533 1705.07967,2567.40935 1704.291,2564.012 C1703.50233,2560.61465 1702.98667,2556.03436 1702.744,2550.271 C1702.50133,2544.50764 1702.38,2537.25804 1702.38,2528.522 C1702.38,2519.78596 1702.50133,2512.53636 1702.744,2506.773 C1702.98667,2501.00964 1703.50233,2496.42935 1704.291,2493.032 C1705.07967,2489.63465 1706.23233,2487.26867 1707.749,2485.934 C1709.26567,2484.59933 1711.29799,2483.932 1713.846,2483.932 C1717.12202,2483.932 1719.48799,2485.26665 1720.944,2487.936 C1722.40001,2490.60535 1723.128,2495.64063 1723.128,2503.042 Z M1786,2492.304 L1786,2593.496 L1819.852,2593.496 L1819.852,2492.304 L1845.332,2492.304 L1845.332,2463.548 L1760.884,2463.548 L1760.884,2492.304 L1786,2492.304 Z" id="contact"></path>
        </g>
    </g>
</svg>