<?xml version="1.0" encoding="UTF-8"?>
<svg width="659px" height="134px" viewBox="0 0 659 134" version="1.1" xmlns="http://www.w3.org/2000/svg" xmlns:xlink="http://www.w3.org/1999/xlink">
    <!-- Generator: Sketch 47.1 (45422) - http://www.bohemiancoding.com/sketch -->
    <title>contact_w</title>
    <desc>Created with Sketch.</desc>
    <defs></defs>
    <g id="Page-1" stroke="none" stroke-width="1" fill="none" fill-rule="evenodd">
        <g id="Artboard-Copy" transform="translate(-1186.000000, -5972.000000)" fill="#FFFFFF">
            <path d="M1241.66396,6013.88633 L1241.66396,6021.13938 L1274.40746,6021.13938 L1274.40746,6012.9797 C1274.40746,6006.6937 1273.64952,6001.04242 1272.13361,5996.02571 C1270.6177,5991.009 1268.19228,5986.71765 1264.85727,5983.15156 C1261.52227,5979.58546 1257.18683,5976.83537 1251.85082,5974.90122 C1246.51482,5972.96706 1240.02682,5972 1232.38663,5972 C1223.65499,5972 1216.31809,5973.17861 1210.37572,5975.53586 C1204.43335,5977.89311 1199.64314,5981.73114 1196.00496,5987.05007 C1192.36677,5992.36899 1189.78976,5999.31976 1188.27385,6007.90257 C1186.75794,6016.48538 1186,6026.94175 1186,6039.27199 C1186,6051.36046 1186.63667,6061.66572 1187.91004,6070.18809 C1189.1834,6078.71046 1191.51787,6085.66123 1194.91351,6091.0406 C1198.30915,6096.41996 1203.03872,6100.25799 1209.10236,6102.5548 C1215.166,6104.85161 1222.92735,6106 1232.38663,6106 C1237.84391,6106 1243.14952,6105.42581 1248.30361,6104.2774 C1253.45771,6103.129 1258.03569,6100.89266 1262.03769,6097.56834 C1266.0397,6094.24401 1269.25338,6089.68068 1271.67884,6083.87821 C1274.10429,6078.07575 1275.317,6070.64145 1275.317,6061.5751 L1275.317,6051.96482 L1242.5735,6051.96482 C1242.5735,6058.12994 1242.42191,6063.23724 1242.11873,6067.28687 C1241.81555,6071.33651 1241.30014,6074.57013 1240.57251,6076.98782 C1239.84487,6079.40552 1238.81407,6081.1281 1237.48006,6082.15562 C1236.14606,6083.18314 1234.44827,6083.69689 1232.38663,6083.69689 C1229.8399,6083.69689 1227.80861,6083.03203 1226.2927,6081.7023 C1224.77679,6080.37257 1223.62472,6078.01535 1222.83644,6074.63058 C1222.04817,6071.24581 1221.53277,6066.68248 1221.29022,6060.94046 C1221.04768,6055.19844 1220.9264,6047.97569 1220.9264,6039.27199 C1220.9264,6030.56829 1221.04768,6023.34554 1221.29022,6017.60352 C1221.53277,6011.8615 1222.04817,6007.29817 1222.83644,6003.9134 C1223.62472,6000.52863 1224.77679,5998.17141 1226.2927,5996.84168 C1227.80861,5995.51195 1229.8399,5994.84709 1232.38663,5994.84709 C1235.661,5994.84709 1238.02578,5996.1768 1239.48106,5998.83627 C1240.93633,6001.49573 1241.66396,6006.51237 1241.66396,6013.88633 Z M1318.51124,6039.27199 C1318.51124,6047.97569 1318.63251,6055.19844 1318.87506,6060.94046 C1319.1176,6066.68248 1319.63301,6071.24581 1320.42128,6074.63058 C1321.20955,6078.01535 1322.36163,6080.37257 1323.87754,6081.7023 C1325.39345,6083.03203 1327.42474,6083.69689 1329.97147,6083.69689 C1332.5182,6083.69689 1334.54949,6083.03203 1336.0654,6081.7023 C1337.58131,6080.37257 1338.73338,6078.01535 1339.52166,6074.63058 C1340.30993,6071.24581 1340.82533,6066.68248 1341.06788,6060.94046 C1341.31042,6055.19844 1341.43169,6047.97569 1341.43169,6039.27199 C1341.43169,6030.56829 1341.31042,6023.34554 1341.06788,6017.60352 C1340.82533,6011.8615 1340.30993,6007.29817 1339.52166,6003.9134 C1338.73338,6000.52863 1337.58131,5998.17141 1336.0654,5996.84168 C1334.54949,5995.51195 1332.5182,5994.84709 1329.97147,5994.84709 C1327.42474,5994.84709 1325.39345,5995.51195 1323.87754,5996.84168 C1322.36163,5998.17141 1321.20955,6000.52863 1320.42128,6003.9134 C1319.63301,6007.29817 1319.1176,6011.8615 1318.87506,6017.60352 C1318.63251,6023.34554 1318.51124,6030.56829 1318.51124,6039.27199 Z M1283.58484,6039.27199 C1283.58484,6027.18352 1284.3731,6016.87826 1285.94965,6008.35589 C1287.52619,5999.83352 1290.13352,5992.88275 1293.77171,5987.50338 C1297.40989,5982.12401 1302.2001,5978.19532 1308.14247,5975.71719 C1314.08483,5973.23905 1321.3611,5972 1329.97147,5972 C1338.58184,5972 1345.8581,5973.23905 1351.80047,5975.71719 C1357.74284,5978.19532 1362.53305,5982.12401 1366.17123,5987.50338 C1369.80942,5992.88275 1372.41674,5999.83352 1373.99329,6008.35589 C1375.56984,6016.87826 1376.3581,6027.18352 1376.3581,6039.27199 C1376.3581,6051.36046 1375.56984,6061.66572 1373.99329,6070.18809 C1372.41674,6078.71046 1369.80942,6085.66123 1366.17123,6091.0406 C1362.53305,6096.41996 1357.74284,6100.25799 1351.80047,6102.5548 C1345.8581,6104.85161 1338.58184,6106 1329.97147,6106 C1321.3611,6106 1314.08483,6104.85161 1308.14247,6102.5548 C1302.2001,6100.25799 1297.40989,6096.41996 1293.77171,6091.0406 C1290.13352,6085.66123 1287.52619,6078.71046 1285.94965,6070.18809 C1284.3731,6061.66572 1283.58484,6051.36046 1283.58484,6039.27199 Z M1388.44601,5974.53857 L1388.44601,6104.00541 L1420.09806,6104.00541 L1420.09806,6024.0406 L1420.46188,6024.0406 L1443.01852,6104.00541 L1480.12782,6104.00541 L1480.12782,5974.53857 L1448.47577,5974.53857 L1448.47577,6054.32206 L1448.11195,6054.32206 L1426.28295,5974.53857 L1388.44601,5974.53857 Z M1513.13519,6003.18809 L1488.03184,6003.18809 L1488.03184,5974.53857 L1572.43732,5974.53857 L1572.43732,6003.18809 L1546.97015,6003.18809 L1546.97015,6104.00541 L1513.13519,6104.00541 L1513.13519,6003.18809 Z M1612.3572,6001.01218 L1603.07988,6055.95399 L1621.99835,6055.95399 L1612.72102,6001.01218 L1612.3572,6001.01218 Z M1633.82239,5974.53857 L1665.47444,6104.00541 L1629.45659,6104.00541 L1626.00033,6081.33965 L1599.07789,6081.33965 L1595.62164,6104.00541 L1560.14951,6104.00541 L1591.25583,5974.53857 L1633.82239,5974.53857 Z M1722.85753,6013.88633 L1722.85753,6021.13938 L1755.60104,6021.13938 L1755.60104,6012.9797 C1755.60104,6006.6937 1754.84309,6001.04242 1753.32718,5996.02571 C1751.81127,5991.009 1749.38585,5986.71765 1746.05085,5983.15156 C1742.71585,5979.58546 1738.38041,5976.83537 1733.0444,5974.90122 C1727.7084,5972.96706 1721.2204,5972 1713.58021,5972 C1704.84856,5972 1697.51167,5973.17861 1691.5693,5975.53586 C1685.62693,5977.89311 1680.83672,5981.73114 1677.19854,5987.05007 C1673.56035,5992.36899 1670.98334,5999.31976 1669.46743,6007.90257 C1667.95152,6016.48538 1667.19358,6026.94175 1667.19358,6039.27199 C1667.19358,6051.36046 1667.83025,6061.66572 1669.10362,6070.18809 C1670.37698,6078.71046 1672.71145,6085.66123 1676.10709,6091.0406 C1679.50273,6096.41996 1684.2323,6100.25799 1690.29594,6102.5548 C1696.35958,6104.85161 1704.12093,6106 1713.58021,6106 C1719.03749,6106 1724.34309,6105.42581 1729.49719,6104.2774 C1734.65129,6103.129 1739.22927,6100.89266 1743.23127,6097.56834 C1747.23327,6094.24401 1750.44696,6089.68068 1752.87241,6083.87821 C1755.29787,6078.07575 1756.51058,6070.64145 1756.51058,6061.5751 L1756.51058,6051.96482 L1723.76708,6051.96482 C1723.76708,6058.12994 1723.61549,6063.23724 1723.31231,6067.28687 C1723.00912,6071.33651 1722.49372,6074.57013 1721.76608,6076.98782 C1721.03845,6079.40552 1720.00764,6081.1281 1718.67364,6082.15562 C1717.33964,6083.18314 1715.64185,6083.69689 1713.58021,6083.69689 C1711.03348,6083.69689 1709.00219,6083.03203 1707.48628,6081.7023 C1705.97037,6080.37257 1704.81829,6078.01535 1704.03002,6074.63058 C1703.24175,6071.24581 1702.72634,6066.68248 1702.4838,6060.94046 C1702.24125,6055.19844 1702.11998,6047.97569 1702.11998,6039.27199 C1702.11998,6030.56829 1702.24125,6023.34554 1702.4838,6017.60352 C1702.72634,6011.8615 1703.24175,6007.29817 1704.03002,6003.9134 C1704.81829,6000.52863 1705.97037,5998.17141 1707.48628,5996.84168 C1709.00219,5995.51195 1711.03348,5994.84709 1713.58021,5994.84709 C1716.85458,5994.84709 1719.21936,5996.1768 1720.67463,5998.83627 C1722.12991,6001.49573 1722.85753,6006.51237 1722.85753,6013.88633 Z M1785.69788,6003.18809 L1785.69788,6104.00541 L1819.53283,6104.00541 L1819.53283,6003.18809 L1845,6003.18809 L1845,5974.53857 L1760.59452,5974.53857 L1760.59452,6003.18809 L1785.69788,6003.18809 Z" id="contact_w"></path>
        </g>
    </g>
</svg>