<?xml version="1.0" encoding="UTF-8"?>
<svg width="627px" height="134px" viewBox="0 0 627 134" version="1.1" xmlns="http://www.w3.org/2000/svg" xmlns:xlink="http://www.w3.org/1999/xlink">
    <!-- Generator: Sketch 47.1 (45422) - http://www.bohemiancoding.com/sketch -->
    <title>history_w</title>
    <desc>Created with Sketch.</desc>
    <defs></defs>
    <g id="Page-1" stroke="none" stroke-width="1" fill="none" fill-rule="evenodd">
        <g id="Artboard-Copy" transform="translate(-1184.000000, -3036.000000)" fill="#FFFFFF">
            <path d="M1184,3038.53857 L1184,3168.00541 L1217.72666,3168.00541 L1217.72666,3114.69553 L1238.39783,3114.69553 L1238.39783,3168.00541 L1272.12449,3168.00541 L1272.12449,3038.53857 L1238.39783,3038.53857 L1238.39783,3086.04601 L1217.72666,3086.04601 L1217.72666,3038.53857 L1184,3038.53857 Z M1286.81191,3038.53857 L1286.81191,3168.00541 L1320.53857,3168.00541 L1320.53857,3038.53857 L1286.81191,3038.53857 Z M1385.63464,3075.89175 L1417.18539,3075.89175 C1417.18539,3061.99001 1413.89133,3051.86607 1407.30311,3045.51962 C1400.7149,3039.17318 1390.04698,3036 1375.29905,3036 C1361.03466,3036 1350.39697,3039.44516 1343.38566,3046.33559 C1336.37434,3053.22602 1332.86874,3063.25929 1332.86874,3076.43572 C1332.86874,3084.05146 1334.16823,3090.21649 1336.76725,3094.93099 C1339.36627,3099.64549 1342.63011,3103.4533 1346.55886,3106.35453 C1350.48762,3109.25577 1354.74874,3111.61298 1359.34235,3113.42625 C1363.93597,3115.23952 1368.19709,3117.02254 1372.12585,3118.77537 C1376.0546,3120.5282 1379.31844,3122.64365 1381.91746,3125.12179 C1384.51648,3127.59992 1385.81597,3130.95442 1385.81597,3135.18539 C1385.81597,3138.69104 1384.87913,3141.65267 1383.00541,3144.07037 C1381.1317,3146.48806 1378.44206,3147.69689 1374.9364,3147.69689 C1371.67251,3147.69689 1369.01309,3146.57872 1366.95805,3144.34235 C1364.90301,3142.10599 1363.87551,3138.20752 1363.87551,3132.64682 L1363.87551,3129.56428 L1331.23681,3129.56428 L1331.23681,3134.09743 C1331.23681,3140.86697 1332.20387,3146.54847 1334.13802,3151.14208 C1336.07218,3155.7357 1338.88271,3159.45285 1342.56969,3162.29364 C1346.25667,3165.13443 1350.78978,3167.129 1356.16915,3168.2774 C1361.54852,3169.42581 1367.74376,3170 1374.75507,3170 C1389.62389,3170 1400.98688,3166.88727 1408.84438,3160.66171 C1416.70189,3154.43614 1420.63058,3144.43309 1420.63058,3130.65223 C1420.63058,3122.79473 1419.27065,3116.41816 1416.55074,3111.52233 C1413.83084,3106.6265 1410.4159,3102.66758 1406.30582,3099.64547 C1402.19574,3096.62335 1397.78351,3094.17547 1393.06901,3092.30176 C1388.35451,3090.42805 1383.94228,3088.58458 1379.83221,3086.77131 C1375.72213,3084.95804 1372.30719,3082.81237 1369.58728,3080.33424 C1366.86737,3077.8561 1365.50744,3074.5016 1365.50744,3070.27064 C1365.50744,3067.3694 1366.35362,3064.7402 1368.04601,3062.38295 C1369.73839,3060.0257 1372.39782,3058.84709 1376.02436,3058.84709 C1379.28824,3058.84709 1381.7059,3060.20702 1383.2774,3062.92693 C1384.8489,3065.64683 1385.63464,3068.94089 1385.63464,3072.8092 L1385.63464,3075.89175 Z M1449.64276,3067.18809 L1449.64276,3168.00541 L1483.36942,3168.00541 L1483.36942,3067.18809 L1508.75507,3067.18809 L1508.75507,3038.53857 L1424.61976,3038.53857 L1424.61976,3067.18809 L1449.64276,3067.18809 Z M1547.37754,3103.27199 C1547.37754,3111.97569 1547.49842,3119.19844 1547.74019,3124.94046 C1547.98196,3130.68248 1548.49571,3135.24581 1549.28146,3138.63058 C1550.06721,3142.01535 1551.2156,3144.37257 1552.72666,3145.7023 C1554.23772,3147.03203 1556.2625,3147.69689 1558.80108,3147.69689 C1561.33966,3147.69689 1563.36445,3147.03203 1564.87551,3145.7023 C1566.38657,3144.37257 1567.53495,3142.01535 1568.3207,3138.63058 C1569.10645,3135.24581 1569.62021,3130.68248 1569.86198,3124.94046 C1570.10375,3119.19844 1570.22463,3111.97569 1570.22463,3103.27199 C1570.22463,3094.56829 1570.10375,3087.34554 1569.86198,3081.60352 C1569.62021,3075.8615 1569.10645,3071.29817 1568.3207,3067.9134 C1567.53495,3064.52863 1566.38657,3062.17141 1564.87551,3060.84168 C1563.36445,3059.51195 1561.33966,3058.84709 1558.80108,3058.84709 C1556.2625,3058.84709 1554.23772,3059.51195 1552.72666,3060.84168 C1551.2156,3062.17141 1550.06721,3064.52863 1549.28146,3067.9134 C1548.49571,3071.29817 1547.98196,3075.8615 1547.74019,3081.60352 C1547.49842,3087.34554 1547.37754,3094.56829 1547.37754,3103.27199 Z M1512.56292,3103.27199 C1512.56292,3091.18352 1513.34866,3080.87826 1514.92016,3072.35589 C1516.49166,3063.83352 1519.09064,3056.88275 1522.71719,3051.50338 C1526.34373,3046.12401 1531.1186,3042.19532 1537.04195,3039.71719 C1542.9653,3037.23905 1550.21827,3036 1558.80108,3036 C1567.38389,3036 1574.63687,3037.23905 1580.56022,3039.71719 C1586.48357,3042.19532 1591.25844,3046.12401 1594.88498,3051.50338 C1598.51152,3056.88275 1601.1105,3063.83352 1602.682,3072.35589 C1604.2535,3080.87826 1605.03924,3091.18352 1605.03924,3103.27199 C1605.03924,3115.36046 1604.2535,3125.66572 1602.682,3134.18809 C1601.1105,3142.71046 1598.51152,3149.66123 1594.88498,3155.0406 C1591.25844,3160.41996 1586.48357,3164.25799 1580.56022,3166.5548 C1574.63687,3168.85161 1567.38389,3170 1558.80108,3170 C1550.21827,3170 1542.9653,3168.85161 1537.04195,3166.5548 C1531.1186,3164.25799 1526.34373,3160.41996 1522.71719,3155.0406 C1519.09064,3149.66123 1516.49166,3142.71046 1514.92016,3134.18809 C1513.34866,3125.66572 1512.56292,3115.36046 1512.56292,3103.27199 Z M1650.91475,3093.29905 L1657.62382,3093.29905 C1662.4592,3093.29905 1666.02525,3091.87868 1668.32206,3089.03789 C1670.61887,3086.1971 1671.76725,3082.47995 1671.76725,3077.88633 C1671.76725,3072.44652 1670.64909,3068.57827 1668.41272,3066.28146 C1666.17635,3063.98465 1662.51965,3062.83627 1657.44249,3062.83627 L1650.91475,3062.83627 L1650.91475,3093.29905 Z M1617.18809,3038.53857 L1669.95399,3038.53857 C1676.36088,3038.53857 1681.83083,3039.38475 1686.36401,3041.07713 C1690.89718,3042.76952 1694.58411,3045.15695 1697.4249,3048.23951 C1700.26569,3051.32207 1702.3207,3054.97878 1703.58999,3059.20974 C1704.85928,3063.44071 1705.49391,3068.03426 1705.49391,3072.99053 C1705.49391,3081.69422 1703.74111,3088.70543 1700.23545,3094.02436 C1696.7298,3099.34328 1691.10874,3102.60712 1683.37212,3103.81597 L1683.37212,3104.17862 C1691.4714,3104.90393 1697.03201,3107.74468 1700.05413,3112.70095 C1703.07624,3117.65722 1704.58728,3124.4871 1704.58728,3133.1908 L1704.58728,3149.51015 C1704.58728,3151.32342 1704.64772,3153.046 1704.76861,3154.67794 C1704.88949,3156.30989 1705.07082,3157.7907 1705.31258,3159.12043 C1705.55435,3160.45016 1705.85656,3161.47767 1706.21922,3162.20298 C1706.70275,3162.92829 1707.18629,3163.62336 1707.66982,3164.28823 C1708.15336,3164.95309 1708.9391,3165.58773 1710.02706,3166.19215 L1710.02706,3168.00541 L1674.12449,3168.00541 C1673.2783,3166.31303 1672.64366,3164.31846 1672.22057,3162.02165 C1671.79747,3159.72484 1671.49526,3157.42807 1671.31394,3155.13126 C1671.13261,3152.83445 1671.01173,3150.62834 1670.95129,3148.51286 C1670.89084,3146.39737 1670.86062,3144.67479 1670.86062,3143.34506 L1670.86062,3134.64141 C1670.86062,3131.01487 1670.6793,3127.9928 1670.31664,3125.5751 C1669.95399,3123.15741 1669.31936,3121.2535 1668.41272,3119.86333 C1667.50608,3118.47315 1666.3577,3117.50609 1664.96752,3116.96211 C1663.57735,3116.41813 1661.85477,3116.14614 1659.79973,3116.14614 L1650.91475,3116.14614 L1650.91475,3168.00541 L1617.18809,3168.00541 L1617.18809,3038.53857 Z M1743.5724,3117.05277 L1743.5724,3168.00541 L1777.29905,3168.00541 L1777.29905,3117.05277 L1810.30041,3038.53857 L1773.30988,3038.53857 L1760.61705,3083.68877 L1760.2544,3083.68877 L1747.56157,3038.53857 L1711.11502,3038.53857 L1743.5724,3117.05277 Z" id="history_w"></path>
        </g>
    </g>
</svg>