<?xml version="1.0" encoding="UTF-8"?>
<svg width="627px" height="134px" viewBox="0 0 627 134" version="1.1" xmlns="http://www.w3.org/2000/svg" xmlns:xlink="http://www.w3.org/1999/xlink">
    <!-- Generator: Sketch 47.1 (45422) - http://www.bohemiancoding.com/sketch -->
    <title>history</title>
    <desc>Created with Sketch.</desc>
    <defs></defs>
    <g id="Page-1" stroke="none" stroke-width="1" fill="none" fill-rule="evenodd">
        <g id="Artboard" transform="translate(-1212.000000, -3036.000000)" fill="#111111">
            <path d="M1212,3038.53857 L1212,3168.00541 L1245.72666,3168.00541 L1245.72666,3114.69553 L1266.39783,3114.69553 L1266.39783,3168.00541 L1300.12449,3168.00541 L1300.12449,3038.53857 L1266.39783,3038.53857 L1266.39783,3086.04601 L1245.72666,3086.04601 L1245.72666,3038.53857 L1212,3038.53857 Z M1314.81191,3038.53857 L1314.81191,3168.00541 L1348.53857,3168.00541 L1348.53857,3038.53857 L1314.81191,3038.53857 Z M1413.63464,3075.89175 L1445.18539,3075.89175 C1445.18539,3061.99001 1441.89133,3051.86607 1435.30311,3045.51962 C1428.7149,3039.17318 1418.04698,3036 1403.29905,3036 C1389.03466,3036 1378.39697,3039.44516 1371.38566,3046.33559 C1364.37434,3053.22602 1360.86874,3063.25929 1360.86874,3076.43572 C1360.86874,3084.05146 1362.16823,3090.21649 1364.76725,3094.93099 C1367.36627,3099.64549 1370.63011,3103.4533 1374.55886,3106.35453 C1378.48762,3109.25577 1382.74874,3111.61298 1387.34235,3113.42625 C1391.93597,3115.23952 1396.19709,3117.02254 1400.12585,3118.77537 C1404.0546,3120.5282 1407.31844,3122.64365 1409.91746,3125.12179 C1412.51648,3127.59992 1413.81597,3130.95442 1413.81597,3135.18539 C1413.81597,3138.69104 1412.87913,3141.65267 1411.00541,3144.07037 C1409.1317,3146.48806 1406.44206,3147.69689 1402.9364,3147.69689 C1399.67251,3147.69689 1397.01309,3146.57872 1394.95805,3144.34235 C1392.90301,3142.10599 1391.87551,3138.20752 1391.87551,3132.64682 L1391.87551,3129.56428 L1359.23681,3129.56428 L1359.23681,3134.09743 C1359.23681,3140.86697 1360.20387,3146.54847 1362.13802,3151.14208 C1364.07218,3155.7357 1366.88271,3159.45285 1370.56969,3162.29364 C1374.25667,3165.13443 1378.78978,3167.129 1384.16915,3168.2774 C1389.54852,3169.42581 1395.74376,3170 1402.75507,3170 C1417.62389,3170 1428.98688,3166.88727 1436.84438,3160.66171 C1444.70189,3154.43614 1448.63058,3144.43309 1448.63058,3130.65223 C1448.63058,3122.79473 1447.27065,3116.41816 1444.55074,3111.52233 C1441.83084,3106.6265 1438.4159,3102.66758 1434.30582,3099.64547 C1430.19574,3096.62335 1425.78351,3094.17547 1421.06901,3092.30176 C1416.35451,3090.42805 1411.94228,3088.58458 1407.83221,3086.77131 C1403.72213,3084.95804 1400.30719,3082.81237 1397.58728,3080.33424 C1394.86737,3077.8561 1393.50744,3074.5016 1393.50744,3070.27064 C1393.50744,3067.3694 1394.35362,3064.7402 1396.04601,3062.38295 C1397.73839,3060.0257 1400.39782,3058.84709 1404.02436,3058.84709 C1407.28824,3058.84709 1409.7059,3060.20702 1411.2774,3062.92693 C1412.8489,3065.64683 1413.63464,3068.94089 1413.63464,3072.8092 L1413.63464,3075.89175 Z M1477.64276,3067.18809 L1477.64276,3168.00541 L1511.36942,3168.00541 L1511.36942,3067.18809 L1536.75507,3067.18809 L1536.75507,3038.53857 L1452.61976,3038.53857 L1452.61976,3067.18809 L1477.64276,3067.18809 Z M1575.37754,3103.27199 C1575.37754,3111.97569 1575.49842,3119.19844 1575.74019,3124.94046 C1575.98196,3130.68248 1576.49571,3135.24581 1577.28146,3138.63058 C1578.06721,3142.01535 1579.2156,3144.37257 1580.72666,3145.7023 C1582.23772,3147.03203 1584.2625,3147.69689 1586.80108,3147.69689 C1589.33966,3147.69689 1591.36445,3147.03203 1592.87551,3145.7023 C1594.38657,3144.37257 1595.53495,3142.01535 1596.3207,3138.63058 C1597.10645,3135.24581 1597.62021,3130.68248 1597.86198,3124.94046 C1598.10375,3119.19844 1598.22463,3111.97569 1598.22463,3103.27199 C1598.22463,3094.56829 1598.10375,3087.34554 1597.86198,3081.60352 C1597.62021,3075.8615 1597.10645,3071.29817 1596.3207,3067.9134 C1595.53495,3064.52863 1594.38657,3062.17141 1592.87551,3060.84168 C1591.36445,3059.51195 1589.33966,3058.84709 1586.80108,3058.84709 C1584.2625,3058.84709 1582.23772,3059.51195 1580.72666,3060.84168 C1579.2156,3062.17141 1578.06721,3064.52863 1577.28146,3067.9134 C1576.49571,3071.29817 1575.98196,3075.8615 1575.74019,3081.60352 C1575.49842,3087.34554 1575.37754,3094.56829 1575.37754,3103.27199 Z M1540.56292,3103.27199 C1540.56292,3091.18352 1541.34866,3080.87826 1542.92016,3072.35589 C1544.49166,3063.83352 1547.09064,3056.88275 1550.71719,3051.50338 C1554.34373,3046.12401 1559.1186,3042.19532 1565.04195,3039.71719 C1570.9653,3037.23905 1578.21827,3036 1586.80108,3036 C1595.38389,3036 1602.63687,3037.23905 1608.56022,3039.71719 C1614.48357,3042.19532 1619.25844,3046.12401 1622.88498,3051.50338 C1626.51152,3056.88275 1629.1105,3063.83352 1630.682,3072.35589 C1632.2535,3080.87826 1633.03924,3091.18352 1633.03924,3103.27199 C1633.03924,3115.36046 1632.2535,3125.66572 1630.682,3134.18809 C1629.1105,3142.71046 1626.51152,3149.66123 1622.88498,3155.0406 C1619.25844,3160.41996 1614.48357,3164.25799 1608.56022,3166.5548 C1602.63687,3168.85161 1595.38389,3170 1586.80108,3170 C1578.21827,3170 1570.9653,3168.85161 1565.04195,3166.5548 C1559.1186,3164.25799 1554.34373,3160.41996 1550.71719,3155.0406 C1547.09064,3149.66123 1544.49166,3142.71046 1542.92016,3134.18809 C1541.34866,3125.66572 1540.56292,3115.36046 1540.56292,3103.27199 Z M1678.91475,3093.29905 L1685.62382,3093.29905 C1690.4592,3093.29905 1694.02525,3091.87868 1696.32206,3089.03789 C1698.61887,3086.1971 1699.76725,3082.47995 1699.76725,3077.88633 C1699.76725,3072.44652 1698.64909,3068.57827 1696.41272,3066.28146 C1694.17635,3063.98465 1690.51965,3062.83627 1685.44249,3062.83627 L1678.91475,3062.83627 L1678.91475,3093.29905 Z M1645.18809,3038.53857 L1697.95399,3038.53857 C1704.36088,3038.53857 1709.83083,3039.38475 1714.36401,3041.07713 C1718.89718,3042.76952 1722.58411,3045.15695 1725.4249,3048.23951 C1728.26569,3051.32207 1730.3207,3054.97878 1731.58999,3059.20974 C1732.85928,3063.44071 1733.49391,3068.03426 1733.49391,3072.99053 C1733.49391,3081.69422 1731.74111,3088.70543 1728.23545,3094.02436 C1724.7298,3099.34328 1719.10874,3102.60712 1711.37212,3103.81597 L1711.37212,3104.17862 C1719.4714,3104.90393 1725.03201,3107.74468 1728.05413,3112.70095 C1731.07624,3117.65722 1732.58728,3124.4871 1732.58728,3133.1908 L1732.58728,3149.51015 C1732.58728,3151.32342 1732.64772,3153.046 1732.76861,3154.67794 C1732.88949,3156.30989 1733.07082,3157.7907 1733.31258,3159.12043 C1733.55435,3160.45016 1733.85656,3161.47767 1734.21922,3162.20298 C1734.70275,3162.92829 1735.18629,3163.62336 1735.66982,3164.28823 C1736.15336,3164.95309 1736.9391,3165.58773 1738.02706,3166.19215 L1738.02706,3168.00541 L1702.12449,3168.00541 C1701.2783,3166.31303 1700.64366,3164.31846 1700.22057,3162.02165 C1699.79747,3159.72484 1699.49526,3157.42807 1699.31394,3155.13126 C1699.13261,3152.83445 1699.01173,3150.62834 1698.95129,3148.51286 C1698.89084,3146.39737 1698.86062,3144.67479 1698.86062,3143.34506 L1698.86062,3134.64141 C1698.86062,3131.01487 1698.6793,3127.9928 1698.31664,3125.5751 C1697.95399,3123.15741 1697.31936,3121.2535 1696.41272,3119.86333 C1695.50608,3118.47315 1694.3577,3117.50609 1692.96752,3116.96211 C1691.57735,3116.41813 1689.85477,3116.14614 1687.79973,3116.14614 L1678.91475,3116.14614 L1678.91475,3168.00541 L1645.18809,3168.00541 L1645.18809,3038.53857 Z M1771.5724,3117.05277 L1771.5724,3168.00541 L1805.29905,3168.00541 L1805.29905,3117.05277 L1838.30041,3038.53857 L1801.30988,3038.53857 L1788.61705,3083.68877 L1788.2544,3083.68877 L1775.56157,3038.53857 L1739.11502,3038.53857 L1771.5724,3117.05277 Z" id="history"></path>
        </g>
    </g>
</svg>