<?xml version="1.0" encoding="UTF-8"?>
<svg width="138px" height="130px" viewBox="0 0 138 130" version="1.1" xmlns="http://www.w3.org/2000/svg" xmlns:xlink="http://www.w3.org/1999/xlink">
    <!-- Generator: Sketch 47.1 (45422) - http://www.bohemiancoding.com/sketch -->
    <title>ir</title>
    <desc>Created with Sketch.</desc>
    <defs></defs>
    <g id="Page-1" stroke="none" stroke-width="1" fill="none" fill-rule="evenodd">
        <g id="Artboard" transform="translate(-1431.000000, -4380.000000)" fill="#111111">
            <path d="M1431,4380 L1431,4509.73686 L1464.85599,4509.73686 L1464.85599,4380 L1431,4380 Z M1509.27997,4435.13909 L1516.01476,4435.13909 C1520.86869,4435.13909 1524.44841,4433.71575 1526.75403,4430.86904 C1529.05964,4428.02232 1530.21243,4424.29742 1530.21243,4419.69422 C1530.21243,4414.24307 1529.08998,4410.36675 1526.84504,4408.06515 C1524.60009,4405.76355 1520.92936,4404.61277 1515.83274,4404.61277 L1509.27997,4404.61277 L1509.27997,4435.13909 Z M1475.42397,4380.26439 L1528.39222,4380.26439 C1534.82368,4380.26439 1540.3146,4381.11234 1544.86516,4382.80825 C1549.41572,4384.50417 1553.11679,4386.89658 1555.96847,4389.98557 C1558.82016,4393.07456 1560.88305,4396.73889 1562.1572,4400.97868 C1563.43136,4405.21847 1564.06843,4409.8216 1564.06843,4414.78821 C1564.06843,4423.51006 1562.3089,4430.53589 1558.7898,4435.8659 C1555.27071,4441.19592 1549.6281,4444.46657 1541.86181,4445.67794 L1541.86181,4446.04134 C1549.99214,4446.76817 1555.57408,4449.61484 1558.60778,4454.58145 C1561.64149,4459.54805 1563.15832,4466.39218 1563.15832,4475.11403 L1563.15832,4491.46742 C1563.15832,4493.28447 1563.21899,4495.01064 1563.34034,4496.64599 C1563.46169,4498.28133 1563.64371,4499.76524 1563.88641,4501.09774 C1564.1291,4502.43025 1564.43247,4503.45989 1564.79651,4504.18672 C1565.28191,4504.91354 1565.76729,4505.61006 1566.25268,4506.27632 C1566.73808,4506.94257 1567.52683,4507.57853 1568.61896,4508.18421 L1568.61896,4510.00125 L1532.57871,4510.00125 C1531.72928,4508.30534 1531.09221,4506.30661 1530.66749,4504.00501 C1530.24277,4501.70341 1529.9394,4499.40185 1529.75738,4497.10025 C1529.57536,4494.79865 1529.45401,4492.58794 1529.39334,4490.46804 C1529.33266,4488.34815 1529.30233,4486.62197 1529.30233,4485.28947 L1529.30233,4476.56766 C1529.30233,4472.93356 1529.12031,4469.90519 1528.75626,4467.48245 C1528.39222,4465.05971 1527.75515,4463.15184 1526.84504,4461.75877 C1525.93493,4460.36569 1524.78213,4459.39661 1523.38663,4458.8515 C1521.99112,4458.30638 1520.26194,4458.03383 1518.19902,4458.03383 L1509.27997,4458.03383 L1509.27997,4510.00125 L1475.42397,4510.00125 L1475.42397,4380.26439 Z" id="ir"></path>
        </g>
    </g>
</svg>