<?xml version="1.0" encoding="UTF-8"?>
<svg width="728px" height="347px" viewBox="0 0 728 347" version="1.1" xmlns="http://www.w3.org/2000/svg" xmlns:xlink="http://www.w3.org/1999/xlink">
    <!-- Generator: Sketch 47.1 (45422) - http://www.bohemiancoding.com/sketch -->
    <title>logo</title>
    <desc>Created with Sketch.</desc>
    <defs></defs>
    <g id="Page-1" stroke="none" stroke-width="1" fill="none" fill-rule="evenodd">
        <g id="Artboard" transform="translate(-55.000000, -75.000000)" fill="#111111">
            <path d="M93.6488412,137.79143 L101.33546,137.79143 C106.875393,137.79143 110.961033,136.164099 113.592501,132.909389 C116.22397,129.654678 117.539684,125.395918 117.539684,120.132981 C117.539684,113.900557 116.258594,109.468676 113.696374,106.837208 C111.134155,104.20574 106.944644,102.890025 101.127714,102.890025 L93.6488412,102.890025 L93.6488412,137.79143 Z M55.008,75.052 L115.462219,75.052 C122.802631,75.052 129.069586,76.0214738 134.263274,77.9604504 C139.456961,79.8994271 143.681097,82.6347281 146.935808,86.1664355 C150.190519,89.698143 152.544955,93.8876546 153.999187,98.7350962 C155.45342,103.582538 156.180525,108.845395 156.180525,114.523827 C156.180525,124.495707 154.17233,132.52849 150.155878,138.622416 C146.139426,144.716343 139.69935,148.455742 130.835457,149.840725 L130.835457,150.256218 C140.114845,151.087208 146.485673,154.34187 149.948131,160.020301 C153.41059,165.698733 155.141793,173.523771 155.141793,183.495651 L155.141793,202.192832 C155.141793,204.270307 155.211041,206.243879 155.349539,208.113607 C155.488038,209.983334 155.695782,211.679913 155.972779,213.203395 C156.249775,214.726876 156.596016,215.904095 157.011511,216.735085 C157.565504,217.566075 158.119489,218.362428 158.673483,219.124169 C159.227476,219.88591 160.127702,220.613015 161.374187,221.305507 L161.374187,223.382971 L120.240388,223.382971 C119.2709,221.443995 118.543794,219.158806 118.05905,216.527338 C117.574306,213.89587 117.228065,211.264441 117.020318,208.632973 C116.81257,206.001504 116.674074,203.473948 116.604825,201.050227 C116.535576,198.626506 116.500952,196.652935 116.500952,195.129453 L116.500952,185.157623 C116.500952,181.002673 116.293207,177.540267 115.877712,174.7703 C115.462217,172.000333 114.735112,169.819017 113.696374,168.226287 C112.657637,166.633556 111.341923,165.525586 109.749192,164.902343 C108.156461,164.279101 106.182889,163.967484 103.828418,163.967484 L93.6488412,163.967484 L93.6488412,223.382971 L55.008,223.382971 L55.008,75.052 Z M227.115668,148.178753 C227.115668,142.223325 226.388562,137.860693 224.93433,135.090726 C223.480097,132.32076 220.744796,130.935797 216.728345,130.935797 C212.850391,130.935797 210.184338,132.32076 208.730106,135.090726 C207.275873,137.860693 206.548768,142.223325 206.548768,148.178753 L206.548768,153.164668 L227.115668,153.164668 L227.115668,148.178753 Z M206.548768,173.523821 L206.548768,188.27382 C206.548768,194.367746 207.58749,198.418762 209.664965,200.426988 C211.74244,202.435213 214.096876,203.439311 216.728345,203.439311 C220.052305,203.439311 222.649109,202.088973 224.518837,199.388255 C226.388564,196.687538 227.323414,191.528552 227.323414,183.911144 L260.97834,183.911144 C260.701344,197.760977 257.169689,208.18282 250.383271,215.176986 C243.596853,222.171152 232.447904,225.668182 216.936091,225.668182 C207.9337,225.668182 200.385654,224.664084 194.291727,222.655859 C188.197801,220.647633 183.281184,217.323723 179.541729,212.684029 C175.802274,208.044335 173.136221,201.985123 171.54349,194.506214 C169.950759,187.027304 169.154406,177.955799 169.154406,167.291427 C169.154406,156.488558 170.054631,147.347805 171.85511,139.868895 C173.655588,132.389985 176.494761,126.29615 180.372714,121.587207 C184.250668,116.878263 189.201909,113.450481 195.226586,111.303757 C201.251264,109.157033 208.487693,108.083687 216.936091,108.083687 C224.415001,108.083687 230.958949,108.983913 236.568131,110.784391 C242.177314,112.584869 246.886186,115.597163 250.694891,119.821362 C254.503595,124.045561 257.342768,129.585411 259.212495,136.441078 C261.082223,143.296746 262.017073,151.84889 262.017073,162.097766 L262.017073,173.523821 L206.548768,173.523821 Z M313.732243,167.083681 C313.732243,173.177608 313.870739,178.232721 314.147736,182.249172 C314.424733,186.265624 314.944094,189.485662 315.705834,191.909383 C316.467575,194.333104 317.540921,196.029683 318.925905,196.999171 C320.310888,197.968659 322.042091,198.453396 324.119566,198.453396 C326.335539,198.453396 328.135991,197.968659 329.520974,196.999171 C330.905957,196.029683 331.979303,194.333104 332.741044,191.909383 C333.502785,189.485662 334.022146,186.265624 334.299142,182.249172 C334.576139,178.232721 334.714635,173.177608 334.714635,167.083681 C334.714635,160.989754 334.576139,155.969265 334.299142,152.022063 C334.022146,148.07486 333.502785,144.889447 332.741044,142.465726 C331.979303,140.042005 330.905957,138.345426 329.520974,137.375937 C328.135991,136.406449 326.335539,135.921712 324.119566,135.921712 C322.042091,135.921712 320.310888,136.406449 318.925905,137.375937 C317.540921,138.345426 316.467575,140.042005 315.705834,142.465726 C314.944094,144.889447 314.424733,148.07486 314.147736,152.022063 C313.870739,155.969265 313.732243,160.989754 313.732243,167.083681 Z M276.337881,110.992137 L312.485764,110.992137 L312.485764,126.365375 L312.901257,126.365375 C317.194706,114.177522 325.712225,108.083687 338.454072,108.083687 C350.918921,108.083687 359.644185,113.1388 364.630125,123.249178 C369.616065,133.359557 372.108998,148.801889 372.108998,169.576639 C372.108998,180.379508 371.27802,189.381765 369.61604,196.583678 C367.95406,203.785591 365.634248,209.56781 362.656534,213.930507 C359.67882,218.293205 356.077917,221.340122 351.853718,223.071352 C347.629519,224.802581 342.886022,225.668182 337.623086,225.668182 C332.360149,225.668182 327.616652,224.62946 323.392453,222.551985 C319.168254,220.47451 316.086713,216.527367 314.147736,210.710437 L313.732243,210.710437 L313.732243,259.323109 L276.337881,259.323109 L276.337881,110.992137 Z M381.345725,110.992137 L381.345725,195.752692 C381.345725,201.708121 382.107454,206.659362 383.630936,210.606564 C385.154418,214.553766 387.231861,217.669932 389.86333,219.955155 C392.494798,222.240377 395.57634,223.763836 399.108047,224.525577 C402.639755,225.287318 406.483026,225.668182 410.637976,225.668182 C424.072314,225.668182 433.143818,220.336076 437.852762,209.671705 L438.268255,209.671705 L438.268255,223.382971 L474.416138,223.382971 L474.416138,110.992137 L437.021776,110.992137 L437.021776,185.157623 C437.021776,189.866566 436.329295,193.259724 434.944311,195.337199 C433.559328,197.414674 431.204892,198.453396 427.880932,198.453396 C424.556972,198.453396 422.202535,197.414674 420.817552,195.337199 C419.432569,193.259724 418.740087,189.866566 418.740087,185.157623 L418.740087,110.992137 L381.345725,110.992137 Z M523.852947,167.291427 C523.852947,173.246856 523.991443,178.232721 524.26844,182.249172 C524.545436,186.265624 525.064797,189.485662 525.826538,191.909383 C526.588279,194.333104 527.661625,196.029683 529.046608,196.999171 C530.431591,197.968659 532.162795,198.453396 534.24027,198.453396 C536.456243,198.453396 538.256694,197.968659 539.641677,196.999171 C541.026661,196.029683 542.100007,194.333104 542.861748,191.909383 C543.623488,189.485662 544.142849,186.265624 544.419846,182.249172 C544.696843,178.232721 544.835339,173.246856 544.835339,167.291427 C544.835339,161.197501 544.696843,156.142388 544.419846,152.125936 C544.142849,148.109484 543.623488,144.889447 542.861748,142.465726 C542.100007,140.042005 541.026661,138.345426 539.641677,137.375937 C538.256694,136.406449 536.456243,135.921712 534.24027,135.921712 C532.162795,135.921712 530.431591,136.406449 529.046608,137.375937 C527.661625,138.345426 526.588279,140.042005 525.826538,142.465726 C525.064797,144.889447 524.545436,148.109484 524.26844,152.125936 C523.991443,156.142388 523.852947,161.197501 523.852947,167.291427 Z M486.458584,75.052 L523.852947,75.052 L523.852947,123.664671 L524.26844,123.664671 C526.207416,117.847741 529.288958,113.796726 533.513157,111.511503 C537.737356,109.226281 542.480853,108.083687 547.743789,108.083687 C553.145224,108.083687 557.992593,109.018537 562.286041,110.888264 C566.57949,112.757992 570.180392,115.874157 573.088857,120.236855 C575.997322,124.599552 578.247886,130.416395 579.840617,137.687557 C581.433348,144.95872 582.229701,153.9956 582.229701,164.79847 C582.229701,185.711718 579.736769,201.084802 574.750829,210.918184 C569.764889,220.751565 561.039625,225.668182 548.574775,225.668182 C541.926855,225.668182 536.594749,224.28322 532.578298,221.513253 C528.561846,218.743286 525.376432,214.242158 523.021961,208.009733 L522.606468,208.009733 L522.606468,223.382971 L486.458584,223.382971 L486.458584,75.052 Z M592.089668,75.052 L592.089668,223.382971 L629.48403,223.382971 L629.48403,75.052 L592.089668,75.052 Z M642.149716,75.052 L642.149716,102.890025 L679.544078,102.890025 L679.544078,75.052 L642.149716,75.052 Z M642.149716,110.992137 L642.149716,223.382971 L679.544078,223.382971 L679.544078,110.992137 L642.149716,110.992137 Z M748.611785,155.034386 L782.266711,155.034386 C782.266711,147.970972 781.608854,141.56552 780.29312,135.817839 C778.977386,130.070158 776.692198,125.153541 773.437487,121.067841 C770.182776,116.98214 765.820144,113.796726 760.34946,111.511503 C754.878776,109.226281 747.988587,108.083687 739.678687,108.083687 C732.615273,108.083687 726.036701,108.776168 719.942774,110.161151 C713.848847,111.546135 708.551366,114.385308 704.05017,118.678756 C699.548974,122.972205 695.982696,129.135288 693.351227,137.168191 C690.719759,145.201094 689.404045,155.865306 689.404045,169.161146 C689.404045,181.348999 690.581263,191.147609 692.935734,198.557269 C695.290206,205.96693 698.579492,211.714525 702.803691,215.800225 C707.02789,219.885926 712.117628,222.551979 718.073056,223.798464 C724.028484,225.044949 730.607056,225.668182 737.808969,225.668182 C753.736277,225.668182 765.231467,221.928783 772.294881,214.449874 C775.895838,210.433422 778.458019,205.309061 779.9815,199.076636 C781.504982,192.844211 782.266711,185.296165 782.266711,176.432272 L748.611785,176.432272 L748.611785,183.703398 C748.611785,190.766813 747.676935,195.614181 745.807208,198.24565 C743.937481,200.877118 741.271428,202.192832 737.808969,202.192832 C735.731494,202.192832 733.965667,201.673472 732.511435,200.634734 C731.057202,199.595997 729.914608,197.760921 729.083618,195.129453 C728.252628,192.497985 727.664019,188.931706 727.317773,184.43051 C726.971527,179.929315 726.798407,174.216344 726.798407,167.291427 C726.798407,160.366511 726.971527,154.65354 727.317773,150.152345 C727.664019,145.651149 728.252628,142.050246 729.083618,139.349529 C729.914608,136.648811 731.057202,134.779112 732.511435,133.740374 C733.965667,132.701637 735.731494,132.182276 737.808969,132.182276 C741.825421,132.182276 744.595346,133.774983 746.118828,136.960445 C746.949818,138.760923 747.573051,141.080735 747.988546,143.919951 C748.404041,146.759167 748.611785,150.463942 748.611785,155.034386 Z M55.008,271.383818 L111.099544,271.383818 C122.317909,271.383818 131.043173,273.426637 137.275597,277.512338 C143.508022,281.598039 148.182271,287.068641 151.298483,293.924308 C154.414696,300.779976 156.319019,308.674262 157.011511,317.607405 C157.704003,326.540547 158.050243,335.85442 158.050243,345.549303 C158.050243,355.244187 157.704003,364.55806 157.011511,373.491202 C156.319019,382.424344 154.414696,390.318631 151.298483,397.174298 C148.182271,404.029966 143.508022,409.500568 137.275597,413.586268 C131.043173,417.671969 122.317909,419.714789 111.099544,419.714789 L55.008,419.714789 L55.008,271.383818 Z M93.6488412,391.876764 L101.33546,391.876764 C105.074915,391.876764 108.052585,391.357403 110.268558,390.318665 C112.484531,389.279928 114.18111,387.098612 115.358346,383.774652 C116.535582,380.450692 117.297311,375.741819 117.643557,369.647893 C117.989803,363.553966 118.162923,355.521183 118.162923,345.549303 C118.162923,335.577423 117.989803,327.544641 117.643557,321.450714 C117.297311,315.356788 116.535582,310.647915 115.358346,307.323955 C114.18111,303.999995 112.484531,301.818679 110.268558,300.779942 C108.052585,299.741204 105.074915,299.221843 101.33546,299.221843 L93.6488412,299.221843 L93.6488412,391.876764 Z M201.982912,363.623245 C201.982912,370.68666 202.121408,376.468879 202.398405,380.970074 C202.675402,385.47127 203.229387,389.037549 204.060377,391.669017 C204.891367,394.300485 205.964713,396.100937 207.280447,397.070425 C208.596181,398.039913 210.29276,398.52465 212.370235,398.52465 C214.44771,398.52465 216.178913,398.039913 217.563896,397.070425 C218.94888,396.100937 220.022226,394.300485 220.783967,391.669017 C221.545707,389.037549 222.065068,385.47127 222.342065,380.970074 C222.619062,376.468879 222.757558,370.68666 222.757558,363.623245 C222.757558,356.55983 222.619062,350.742988 222.342065,346.172543 C222.065068,341.602098 221.545707,338.001195 220.783967,335.369727 C220.022226,332.738259 218.94888,330.937807 217.563896,329.968319 C216.178913,328.998831 214.44771,328.514094 212.370235,328.514094 C210.29276,328.514094 208.596181,328.998831 207.280447,329.968319 C205.964713,330.937807 204.891367,332.738259 204.060377,335.369727 C203.229387,338.001195 202.675402,341.602098 202.398405,346.172543 C202.121408,350.742988 201.982912,356.55983 201.982912,363.623245 Z M260.15192,363.623245 C260.15192,370.963657 259.632559,378.165462 258.593822,385.228877 C257.555084,392.292292 255.373768,398.559247 252.049808,404.029931 C248.725849,409.500615 243.913104,413.863247 237.61143,417.117958 C231.309756,420.372669 222.896108,422 212.370235,422 C201.428867,422 192.772851,420.511165 186.401928,417.533451 C180.031004,414.555737 175.252884,410.400849 172.067422,405.068664 C168.88196,399.736478 166.839141,393.504146 165.938902,386.371482 C165.038662,379.238818 164.58855,371.5869 164.58855,363.415499 C164.58855,356.075087 165.10791,348.873282 166.146648,341.809867 C167.185385,334.746452 169.366701,328.444873 172.690661,322.904939 C176.014621,317.365006 180.827366,312.898502 187.12904,309.505293 C193.430714,306.112084 201.844362,304.415505 212.370235,304.415505 C223.311603,304.415505 231.967619,305.973587 238.338542,309.0898 C244.709465,312.206012 249.487586,316.464772 252.673048,321.866207 C255.858509,327.267642 257.901329,333.534598 258.801568,340.667262 C259.701808,347.799926 260.15192,355.451844 260.15192,363.623245 Z M264.608196,307.323955 L264.608196,332.461276 L277.072984,332.461276 L277.072984,392.292256 C277.072984,398.524681 277.661593,403.545171 278.838828,407.353875 C280.016064,411.162579 281.885764,414.036376 284.447983,415.975353 C287.010202,417.914329 290.299488,419.126172 294.31594,419.610916 C298.332391,420.09566 303.17976,420.338028 308.858192,420.338028 C312.043653,420.338028 315.367563,420.234156 318.830022,420.026409 C322.29248,419.818661 325.754886,419.714789 329.217345,419.714789 L329.217345,394.785214 L323.400444,394.785214 C320.35348,394.785214 318.102916,394.127357 316.648684,392.811623 C315.194451,391.495888 314.467346,389.245324 314.467346,386.059863 L314.467346,332.461276 L329.217345,332.461276 L329.217345,307.323955 L314.467346,307.323955 L314.467346,274.292268 L277.072984,274.292268 L277.072984,307.323955 L264.608196,307.323955 Z" id="logo"></path>
        </g>
    </g>
</svg>