<?xml version="1.0" encoding="UTF-8"?>
<svg width="727px" height="347px" viewBox="0 0 727 347" version="1.1" xmlns="http://www.w3.org/2000/svg" xmlns:xlink="http://www.w3.org/1999/xlink">
    <!-- Generator: Sketch 47.1 (45422) - http://www.bohemiancoding.com/sketch -->
    <title>logo_w</title>
    <desc>Created with Sketch.</desc>
    <defs></defs>
    <g id="Page-1" stroke="none" stroke-width="1" fill="none" fill-rule="evenodd">
        <g id="Artboard-Copy" transform="translate(-55.000000, -75.000000)" fill="#FFFFFF">
            <path d="M93.6270953,137.748834 L101.31098,137.748834 C106.848942,137.748834 110.933128,136.121259 113.563661,132.86606 C116.194193,129.610862 117.509439,125.351464 117.509439,120.087738 C117.509439,113.854379 116.228805,109.421835 113.667497,106.789972 C111.106189,104.158109 106.918168,102.842198 101.103307,102.842198 L93.6270953,102.842198 L93.6270953,137.748834 Z M55,75 L115.432714,75 C122.770514,75 129.03524,75.9696191 134.22708,77.9088863 C139.41892,79.8481536 143.641553,82.5838646 146.895106,86.1161013 C150.148659,89.6483381 152.502258,93.8384777 153.955973,98.6866458 C155.409688,103.534814 156.136535,108.79846 156.136535,114.477743 C156.136535,124.451117 154.129053,132.485104 150.11403,138.579944 C146.099008,144.674784 139.661223,148.414743 130.800483,149.799934 L130.800483,150.215489 C140.07657,151.046604 146.445131,154.301754 149.906358,159.981036 C153.367584,165.660319 155.098172,173.48653 155.098172,183.459905 L155.098172,202.159888 C155.098172,204.237674 155.167395,206.211542 155.305844,208.08155 C155.444293,209.951557 155.651964,211.648391 155.928862,213.172101 C156.20576,214.695811 156.551878,215.873205 156.967225,216.70432 C157.521021,217.535434 158.074809,218.331907 158.628605,219.093762 C159.182401,219.855617 160.082307,220.582831 161.328348,221.275427 L161.328348,223.353203 L120.209182,223.353203 C119.240039,221.413936 118.513192,219.128405 118.028621,216.496542 C117.544049,213.864679 117.197931,211.232856 116.990258,208.600994 C116.782584,205.969131 116.644137,203.441195 116.574913,201.017111 C116.505688,198.593027 116.471076,196.61916 116.471076,195.09545 L116.471076,185.122125 C116.471076,180.966553 116.263406,177.503627 115.848059,174.733246 C115.432712,171.962864 114.705865,169.781221 113.667497,168.188251 C112.629129,166.595282 111.313883,165.487146 109.721718,164.86381 C108.129554,164.240474 106.156685,163.928811 103.803051,163.928811 L93.6270953,163.928811 L93.6270953,223.353203 L55,223.353203 L55,75 Z M227.046443,148.137713 C227.046443,142.181393 226.319596,137.818107 224.865881,135.047725 C223.412166,132.277343 220.677838,130.892173 216.662815,130.892173 C212.786241,130.892173 210.121137,132.277343 208.667422,135.047725 C207.213706,137.818107 206.48686,142.181393 206.48686,148.137713 L206.48686,153.124376 L227.046443,153.124376 L227.046443,148.137713 Z M206.48686,173.48658 L206.48686,188.238789 C206.48686,194.333629 207.525212,198.385252 209.601948,200.393779 C211.678684,202.402305 214.032283,203.406554 216.662815,203.406554 C219.985593,203.406554 222.581473,202.056013 224.450536,199.354891 C226.319598,196.653768 227.254115,191.49401 227.254115,183.87546 L260.897069,183.87546 C260.620171,197.727369 257.089773,208.150774 250.305769,215.145988 C243.521765,222.141202 232.376783,225.638756 216.870488,225.638756 C207.871298,225.638756 200.325938,224.634508 194.234179,222.625981 C188.14242,220.617454 183.227552,217.293046 179.489428,212.652657 C175.751303,208.012267 173.086198,201.952148 171.494034,194.472117 C169.90187,186.992086 169.1058,177.919222 169.1058,167.253252 C169.1058,156.448763 170.005705,147.30664 171.805543,139.82661 C173.605381,132.346579 176.443544,126.25183 180.320118,121.542181 C184.196692,116.832532 189.146171,113.404236 195.168706,111.25719 C201.19124,109.110144 208.425095,108.036638 216.870488,108.036638 C224.346737,108.036638 230.888357,108.936998 236.495544,110.737746 C242.102731,112.538495 246.809929,115.551239 250.617278,119.776072 C254.424627,124.000904 257.26279,129.541584 259.131853,136.398279 C261.000915,143.254974 261.935432,151.8084 261.935432,162.058812 L261.935432,173.48658 L206.48686,173.48658 Z M313.632206,167.045475 C313.632206,173.140315 313.770653,178.196185 314.047551,182.213239 C314.324449,186.230293 314.843625,189.450813 315.605095,191.874897 C316.366565,194.298981 317.439529,195.995815 318.82402,196.965448 C320.20851,197.935082 321.939098,198.419891 324.015834,198.419891 C326.231019,198.419891 328.030829,197.935082 329.41532,196.965448 C330.799811,195.995815 331.872775,194.298981 332.634245,191.874897 C333.395714,189.450813 333.914891,186.230293 334.191789,182.213239 C334.468687,178.196185 334.607134,173.140315 334.607134,167.045475 C334.607134,160.950635 334.468687,155.929393 334.191789,151.981599 C333.914891,148.033805 333.395714,144.847914 332.634245,142.42383 C331.872775,139.999746 330.799811,138.302912 329.41532,137.333278 C328.030829,136.363645 326.231019,135.878835 324.015834,135.878835 C321.939098,135.878835 320.20851,136.363645 318.82402,137.333278 C317.439529,138.302912 316.366565,139.999746 315.605095,142.42383 C314.843625,144.847914 314.324449,148.033805 314.047551,151.981599 C313.770653,155.929393 313.632206,160.950635 313.632206,167.045475 Z M276.251146,110.945524 L312.38617,110.945524 L312.38617,126.321066 L312.801516,126.321066 C317.093436,114.131386 325.607926,108.036638 338.34524,108.036638 C350.805656,108.036638 359.527816,113.092509 364.511982,123.204402 C369.496148,133.316296 371.988194,148.760942 371.988194,169.538806 C371.988194,180.343295 371.157512,189.3469 369.496123,196.549893 C367.834734,203.752886 365.515747,209.535971 362.539093,213.899322 C359.562438,218.262674 355.962816,221.310048 351.74012,223.041536 C347.517423,224.773025 342.775614,225.638756 337.51455,225.638756 C332.253485,225.638756 327.511676,224.599879 323.28898,222.522092 C319.066283,220.444306 315.985838,216.496571 314.047551,210.67877 L313.632206,210.67877 L313.632206,259.298727 L276.251146,259.298727 L276.251146,110.945524 Z M381.221635,110.945524 L381.221635,195.718783 C381.221635,201.675104 381.983094,206.627087 383.506033,210.574881 C385.028973,214.522675 387.105678,217.639308 389.73621,219.924873 C392.366742,222.210437 395.447188,223.734125 398.977639,224.49598 C402.50809,225.257835 406.349994,225.638756 410.503466,225.638756 C423.933025,225.638756 433.001302,220.305851 437.70857,209.639882 L438.123915,209.639882 L438.123915,223.353203 L474.25894,223.353203 L474.25894,110.945524 L436.87788,110.945524 L436.87788,185.122125 C436.87788,189.831774 436.185645,193.225441 434.801155,195.303228 C433.416664,197.381014 431.063065,198.419891 427.740288,198.419891 C424.41751,198.419891 422.063911,197.381014 420.679421,195.303228 C419.29493,193.225441 418.602695,189.831774 418.602695,185.122125 L418.602695,110.945524 L381.221635,110.945524 Z M523.678162,167.253252 C523.678162,173.209573 523.816609,178.196185 524.093507,182.213239 C524.370405,186.230293 524.889581,189.450813 525.651051,191.874897 C526.412521,194.298981 527.485485,195.995815 528.869976,196.965448 C530.254467,197.935082 531.985054,198.419891 534.06179,198.419891 C536.276975,198.419891 538.076786,197.935082 539.461276,196.965448 C540.845767,195.995815 541.918731,194.298981 542.680201,191.874897 C543.441671,189.450813 543.960847,186.230293 544.237745,182.213239 C544.514643,178.196185 544.65309,173.209573 544.65309,167.253252 C544.65309,161.158412 544.514643,156.102541 544.237745,152.085488 C543.960847,148.068434 543.441671,144.847914 542.680201,142.42383 C541.918731,139.999746 540.845767,138.302912 539.461276,137.333278 C538.076786,136.363645 536.276975,135.878835 534.06179,135.878835 C531.985054,135.878835 530.254467,136.363645 528.869976,137.333278 C527.485485,138.302912 526.412521,139.999746 525.651051,142.42383 C524.889581,144.847914 524.370405,148.068434 524.093507,152.085488 C523.816609,156.102541 523.678162,161.158412 523.678162,167.253252 Z M486.297102,75 L523.678162,75 L523.678162,123.619957 L524.093507,123.619957 C526.031794,117.802155 529.112239,113.750533 533.334936,111.464968 C537.557632,109.179403 542.299442,108.036638 547.560506,108.036638 C552.960019,108.036638 557.805664,108.971627 562.097585,110.841635 C566.389506,112.711643 569.989127,115.828276 572.896558,120.191627 C575.803988,124.554978 578.053752,130.372693 579.645916,137.644945 C581.23808,144.917197 582.03415,153.955432 582.03415,164.759921 C582.03415,185.676304 579.542104,201.051692 574.557938,210.886547 C569.573772,220.721402 560.851612,225.638756 548.391196,225.638756 C541.745641,225.638756 536.415432,224.253586 532.400409,221.483204 C528.385387,218.712823 525.201106,214.21102 522.847472,207.977661 L522.432127,207.977661 L522.432127,223.353203 L486.297102,223.353203 L486.297102,75 Z M591.890609,75 L591.890609,223.353203 L629.271669,223.353203 L629.271669,75 L591.890609,75 Z M641.932849,75 L641.932849,102.842198 L679.313909,102.842198 L679.313909,75 L641.932849,75 Z M641.932849,110.945524 L641.932849,223.353203 L679.313909,223.353203 L679.313909,110.945524 L641.932849,110.945524 Z M748.357046,154.994374 L782,154.994374 C782,147.929901 781.342377,141.523489 780.027111,135.774947 C778.711845,130.026404 776.427469,125.10905 773.173916,121.022737 C769.920363,116.936424 765.559283,113.750533 760.090545,111.464968 C754.621807,109.179403 747.73407,108.036638 739.427126,108.036638 C732.366224,108.036638 725.789992,108.729223 719.698233,110.114414 C713.606475,111.499604 708.310877,114.339203 703.811283,118.633295 C699.311688,122.927387 695.746678,129.091394 693.116146,137.125501 C690.485614,145.159608 689.170368,155.825418 689.170368,169.123251 C689.170368,181.31293 690.347167,191.113009 692.700801,198.52378 C695.054435,205.934552 698.342551,211.683007 702.565247,215.769321 C706.787944,219.855634 711.875871,222.522086 717.82918,223.768758 C723.78249,225.01543 730.358722,225.638756 737.558073,225.638756 C753.479715,225.638756 764.970815,221.898797 772.031717,214.418766 C775.631393,210.401713 778.192662,205.276583 779.715602,199.043224 C781.238542,192.809865 782,185.260688 782,176.395466 L748.357046,176.395466 L748.357046,183.667682 C748.357046,190.732156 747.422529,195.580251 745.553466,198.212114 C743.684404,200.843977 741.0193,202.159888 737.558073,202.159888 C735.481337,202.159888 733.716138,201.640449 732.262423,200.601556 C730.808708,199.562663 729.66652,197.727313 728.835826,195.09545 C728.005131,192.463587 727.416732,188.896774 727.070609,184.394904 C726.724486,179.893033 726.551428,174.179207 726.551428,167.253252 C726.551428,160.327298 726.724486,154.613471 727.070609,150.111601 C727.416732,145.60973 728.005131,142.008288 728.835826,139.307166 C729.66652,136.606043 730.808708,134.736064 732.262423,133.697171 C733.716138,132.658277 735.481337,132.138839 737.558073,132.138839 C741.573096,132.138839 744.342036,133.731784 745.864975,136.917723 C746.69567,138.718471 747.318681,141.038631 747.734028,143.878273 C748.149376,146.717914 748.357046,150.423244 748.357046,154.994374 Z M55,271.361244 L111.07159,271.361244 C122.285964,271.361244 131.008124,273.40437 137.238332,277.490683 C143.46854,281.576996 148.141126,287.048418 151.25623,293.905113 C154.371333,300.761808 156.274979,308.657277 156.967225,317.591759 C157.65947,326.52624 158.005588,335.841509 158.005588,345.537845 C158.005588,355.234181 157.65947,364.54945 156.967225,373.483932 C156.274979,382.418413 154.371333,390.313882 151.25623,397.170577 C148.141126,404.027272 143.46854,409.498694 137.238332,413.585007 C131.008124,417.671321 122.285964,419.714446 111.07159,419.714446 L55,419.714446 L55,271.361244 Z M93.6270953,391.872249 L101.31098,391.872249 C105.049105,391.872249 108.025715,391.35281 110.2409,390.313917 C112.456085,389.275024 114.15206,387.093381 115.328877,383.768923 C116.505694,380.444464 117.267153,375.734886 117.613276,369.640046 C117.959398,363.545206 118.132457,355.511219 118.132457,345.537845 C118.132457,335.564471 117.959398,327.530484 117.613276,321.435644 C117.267153,315.340804 116.505694,310.631226 115.328877,307.306768 C114.15206,303.982309 112.456085,301.800666 110.2409,300.761773 C108.025715,299.72288 105.049105,299.203441 101.31098,299.203441 L93.6270953,299.203441 L93.6270953,391.872249 Z M201.922628,363.614496 C201.922628,370.678969 202.061075,376.462055 202.337973,380.963925 C202.614871,385.465795 203.168659,389.032608 203.999353,391.664471 C204.830048,394.296334 205.903012,396.097055 207.218278,397.066689 C208.533544,398.036322 210.22952,398.521132 212.306256,398.521132 C214.382992,398.521132 216.113579,398.036322 217.49807,397.066689 C218.88256,396.097055 219.955524,394.296334 220.716994,391.664471 C221.478464,389.032608 221.99764,385.465795 222.274538,380.963925 C222.551436,376.462055 222.689883,370.678969 222.689883,363.614496 C222.689883,356.550022 222.551436,350.732308 222.274538,346.161178 C221.99764,341.590048 221.478464,337.988606 220.716994,335.356743 C219.955524,332.72488 218.88256,330.924159 217.49807,329.954525 C216.113579,328.984892 214.382992,328.500082 212.306256,328.500082 C210.22952,328.500082 208.533544,328.984892 207.218278,329.954525 C205.903012,330.924159 204.830048,332.72488 203.999353,335.356743 C203.168659,337.988606 202.614871,341.590048 202.337973,346.161178 C202.061075,350.732308 201.922628,356.550022 201.922628,363.614496 Z M260.070943,363.614496 C260.070943,370.956008 259.551767,378.158892 258.513399,385.223366 C257.475031,392.287839 255.294491,398.555734 251.971714,404.027238 C248.648936,409.498742 243.837904,413.862028 237.538471,417.117227 C231.239039,420.372425 222.828384,422 212.306256,422 C201.36878,422 192.715843,420.510942 186.347186,417.532782 C179.978529,414.554621 175.202108,410.399111 172.01778,405.066126 C168.833451,399.733141 166.791358,393.499876 165.89144,386.366142 C164.991521,379.232409 164.541568,371.579344 164.541568,363.406718 C164.541568,356.065206 165.060744,348.862322 166.099112,341.797848 C167.13748,334.733375 169.31802,328.430851 172.640798,322.890087 C175.963575,317.349324 180.774608,312.88215 187.07404,309.488432 C193.373473,306.094715 201.784127,304.397881 212.306256,304.397881 C223.243732,304.397881 231.896668,305.956198 238.265325,309.072877 C244.633982,312.189557 249.410403,316.448955 252.594731,321.851199 C255.77906,327.253444 257.821153,333.521338 258.721072,340.655072 C259.620991,347.788805 260.070943,355.44187 260.070943,363.614496 Z M264.525634,307.306768 L264.525634,332.447857 L276.985987,332.447857 L276.985987,392.287804 C276.985987,398.521163 277.574387,403.542405 278.751204,407.35168 C279.928021,411.160955 281.797055,414.035182 284.358363,415.97445 C286.919671,417.913717 290.207787,419.125741 294.222809,419.610558 C298.237832,420.095374 303.083477,420.337779 308.759888,420.337779 C311.944217,420.337779 315.266944,420.233891 318.728171,420.026113 C322.189397,419.818334 325.650572,419.714446 329.111799,419.714446 L329.111799,394.781135 L323.296967,394.781135 C320.251088,394.781135 318.001324,394.123179 316.547609,392.807248 C315.093894,391.491317 314.367047,389.240415 314.367047,386.054476 L314.367047,332.447857 L329.111799,332.447857 L329.111799,307.306768 L314.367047,307.306768 L314.367047,274.27013 L276.985987,274.27013 L276.985987,307.306768 L264.525634,307.306768 Z" id="logo_w"></path>
        </g>
    </g>
</svg>