<?xml version="1.0" encoding="UTF-8"?>
<svg width="615px" height="135px" viewBox="0 0 615 135" version="1.1" xmlns="http://www.w3.org/2000/svg" xmlns:xlink="http://www.w3.org/1999/xlink">
    <!-- Generator: Sketch 47.1 (45422) - http://www.bohemiancoding.com/sketch -->
    <title>service</title>
    <desc>Created with Sketch.</desc>
    <defs></defs>
    <g id="Page-1" stroke="none" stroke-width="1" fill="none" fill-rule="evenodd">
        <g id="Artboard" transform="translate(-1226.000000, -1670.000000)" fill="#111111">
            <path d="M1280.6,1710.04 L1312.268,1710.04 C1312.268,1696.0866 1308.9617,1685.92503 1302.349,1679.555 C1295.7363,1673.18497 1285.02874,1670 1270.226,1670 C1255.9086,1670 1245.23137,1673.45797 1238.194,1680.374 C1231.15663,1687.29003 1227.638,1697.3606 1227.638,1710.586 C1227.638,1718.23004 1228.94232,1724.41798 1231.551,1729.15 C1234.15968,1733.88202 1237.43565,1737.70399 1241.379,1740.616 C1245.32235,1743.52801 1249.59931,1745.89399 1254.21,1747.714 C1258.82069,1749.53401 1263.09765,1751.32366 1267.041,1753.083 C1270.98435,1754.84234 1274.26032,1756.96565 1276.869,1759.453 C1279.47768,1761.94035 1280.782,1765.30731 1280.782,1769.554 C1280.782,1773.07268 1279.84168,1776.04532 1277.961,1778.472 C1276.08032,1780.89868 1273.38068,1782.112 1269.862,1782.112 C1266.58598,1782.112 1263.91668,1780.98968 1261.854,1778.745 C1259.79132,1776.50032 1258.76,1772.58736 1258.76,1767.006 L1258.76,1763.912 L1226,1763.912 L1226,1768.462 C1226,1775.2567 1226.97066,1780.95931 1228.912,1785.57 C1230.85334,1790.18069 1233.67431,1793.91165 1237.375,1796.763 C1241.07569,1799.61435 1245.62564,1801.61633 1251.025,1802.769 C1256.42436,1803.92167 1262.64263,1804.498 1269.68,1804.498 C1284.60407,1804.498 1296.00929,1801.3737 1303.896,1795.125 C1311.78271,1788.8763 1315.726,1778.83607 1315.726,1765.004 C1315.726,1757.11729 1314.36101,1750.71702 1311.631,1745.803 C1308.90099,1740.88898 1305.47335,1736.91535 1301.348,1733.882 C1297.22265,1730.84865 1292.79402,1728.39168 1288.062,1726.511 C1283.32998,1724.63032 1278.90135,1722.78001 1274.776,1720.96 C1270.65065,1719.13999 1267.22301,1716.98635 1264.493,1714.499 C1261.76299,1712.01165 1260.398,1708.64469 1260.398,1704.398 C1260.398,1701.48599 1261.24732,1698.84701 1262.946,1696.481 C1264.64468,1694.11499 1267.31398,1692.932 1270.954,1692.932 C1274.23002,1692.932 1276.65666,1694.29699 1278.234,1697.027 C1279.81134,1699.75701 1280.6,1703.06331 1280.6,1706.946 L1280.6,1710.04 Z M1327.638,1672.548 L1327.638,1802.496 L1406.262,1802.496 L1406.262,1774.832 L1361.49,1774.832 L1361.49,1748.988 L1401.894,1748.988 L1401.894,1722.416 L1361.49,1722.416 L1361.49,1700.212 L1404.624,1700.212 L1404.624,1672.548 L1327.638,1672.548 Z M1452.39,1727.512 L1459.124,1727.512 C1463.97736,1727.512 1467.55666,1726.08635 1469.862,1723.235 C1472.16734,1720.38365 1473.32,1716.65269 1473.32,1712.042 C1473.32,1706.58197 1472.19768,1702.69934 1469.953,1700.394 C1467.70832,1698.08866 1464.03803,1696.936 1458.942,1696.936 L1452.39,1696.936 L1452.39,1727.512 Z M1418.538,1672.548 L1471.5,1672.548 C1477.9307,1672.548 1483.42098,1673.39732 1487.971,1675.096 C1492.52102,1676.79468 1496.22165,1679.19098 1499.073,1682.285 C1501.92435,1685.37902 1503.98699,1689.04931 1505.261,1693.296 C1506.53501,1697.54269 1507.172,1702.15331 1507.172,1707.128 C1507.172,1715.86404 1505.41268,1722.90131 1501.894,1728.24 C1498.37532,1733.57869 1492.73337,1736.85466 1484.968,1738.068 L1484.968,1738.432 C1493.09737,1739.16 1498.67865,1742.01131 1501.712,1746.986 C1504.74535,1751.96069 1506.262,1758.81596 1506.262,1767.552 L1506.262,1783.932 C1506.262,1785.75201 1506.32267,1787.48099 1506.444,1789.119 C1506.56533,1790.75701 1506.74733,1792.24333 1506.99,1793.578 C1507.23267,1794.91267 1507.536,1795.944 1507.9,1796.672 C1508.38534,1797.4 1508.87066,1798.09766 1509.356,1798.765 C1509.84134,1799.43234 1510.62999,1800.06933 1511.722,1800.676 L1511.722,1802.496 L1475.686,1802.496 C1474.83666,1800.79732 1474.19967,1798.79534 1473.775,1796.49 C1473.35033,1794.18466 1473.047,1791.87934 1472.865,1789.574 C1472.683,1787.26866 1472.56167,1785.05434 1472.501,1782.931 C1472.44033,1780.80766 1472.41,1779.07867 1472.41,1777.744 L1472.41,1769.008 C1472.41,1765.36798 1472.228,1762.33468 1471.864,1759.908 C1471.5,1757.48132 1470.863,1755.57034 1469.953,1754.175 C1469.043,1752.77966 1467.89034,1751.809 1466.495,1751.263 C1465.09966,1750.717 1463.37068,1750.444 1461.308,1750.444 L1452.39,1750.444 L1452.39,1802.496 L1418.538,1802.496 L1418.538,1672.548 Z M1512.896,1672.548 L1540.378,1802.496 L1584.058,1802.496 L1612.086,1672.548 L1576.05,1672.548 L1562.4,1770.464 L1562.036,1770.464 L1548.386,1672.548 L1512.896,1672.548 Z M1616.172,1672.548 L1616.172,1802.496 L1650.024,1802.496 L1650.024,1672.548 L1616.172,1672.548 Z M1716.536,1712.042 L1716.536,1719.322 L1749.296,1719.322 L1749.296,1711.132 C1749.296,1704.82264 1748.53767,1699.15036 1747.021,1694.115 C1745.50433,1689.07964 1743.07768,1684.77235 1739.741,1681.193 C1736.40432,1677.61365 1732.06669,1674.85334 1726.728,1672.912 C1721.38931,1670.97066 1714.89804,1670 1707.254,1670 C1698.51796,1670 1691.17736,1671.18299 1685.232,1673.549 C1679.28664,1675.91501 1674.49402,1679.76731 1670.854,1685.106 C1667.21398,1690.44469 1664.63567,1697.42129 1663.119,1706.036 C1661.60233,1714.65071 1660.844,1725.14594 1660.844,1737.522 C1660.844,1749.65539 1661.48099,1759.99896 1662.755,1768.553 C1664.02901,1777.10704 1666.36465,1784.08364 1669.762,1789.483 C1673.15935,1794.88236 1677.8913,1798.73466 1683.958,1801.04 C1690.0247,1803.34534 1697.78995,1804.498 1707.254,1804.498 C1712.71403,1804.498 1718.02231,1803.92167 1723.179,1802.769 C1728.33569,1801.61633 1732.91598,1799.37168 1736.92,1796.035 C1740.92402,1792.69832 1744.13932,1788.11803 1746.566,1782.294 C1748.99268,1776.46997 1750.206,1769.00805 1750.206,1759.908 L1750.206,1750.262 L1717.446,1750.262 C1717.446,1756.45003 1717.29433,1761.57631 1716.991,1765.641 C1716.68767,1769.70569 1716.172,1772.95132 1715.444,1775.378 C1714.716,1777.80468 1713.68467,1779.53366 1712.35,1780.565 C1711.01533,1781.59634 1709.31668,1782.112 1707.254,1782.112 C1704.70599,1782.112 1702.67367,1781.44467 1701.157,1780.11 C1699.64033,1778.77533 1698.48767,1776.40935 1697.699,1773.012 C1696.91033,1769.61465 1696.39467,1765.03436 1696.152,1759.271 C1695.90933,1753.50764 1695.788,1746.25804 1695.788,1737.522 C1695.788,1728.78596 1695.90933,1721.53636 1696.152,1715.773 C1696.39467,1710.00964 1696.91033,1705.42935 1697.699,1702.032 C1698.48767,1698.63465 1699.64033,1696.26867 1701.157,1694.934 C1702.67367,1693.59933 1704.70599,1692.932 1707.254,1692.932 C1710.53002,1692.932 1712.89599,1694.26665 1714.352,1696.936 C1715.80801,1699.60535 1716.536,1704.64063 1716.536,1712.042 Z M1762.3,1672.548 L1762.3,1802.496 L1840.924,1802.496 L1840.924,1774.832 L1796.152,1774.832 L1796.152,1748.988 L1836.556,1748.988 L1836.556,1722.416 L1796.152,1722.416 L1796.152,1700.212 L1839.286,1700.212 L1839.286,1672.548 L1762.3,1672.548 Z" id="service"></path>
        </g>
    </g>
</svg>