<?xml version="1.0" encoding="UTF-8"?>
<svg width="615px" height="134px" viewBox="0 0 615 134" version="1.1" xmlns="http://www.w3.org/2000/svg" xmlns:xlink="http://www.w3.org/1999/xlink">
    <!-- Generator: Sketch 47.1 (45422) - http://www.bohemiancoding.com/sketch -->
    <title>service_w</title>
    <desc>Created with Sketch.</desc>
    <defs></defs>
    <g id="Page-1" stroke="none" stroke-width="1" fill="none" fill-rule="evenodd">
        <g id="Artboard-Copy" transform="translate(-1226.000000, -2879.000000)" fill="#FFFFFF">
            <path d="M1280.60675,2918.89175 L1312.27866,2918.89175 C1312.27866,2904.99001 1308.97195,2894.86607 1302.35844,2888.51962 C1295.74492,2882.17318 1285.03604,2879 1270.23147,2879 C1255.91229,2879 1245.23375,2882.44516 1238.19551,2889.33559 C1231.15727,2896.22602 1227.6382,2906.25929 1227.6382,2919.43572 C1227.6382,2927.05146 1228.94268,2933.21649 1231.55169,2937.93099 C1234.16069,2942.64549 1237.43706,2946.4533 1241.3809,2949.35453 C1245.32474,2952.25577 1249.60223,2954.61298 1254.21349,2956.42625 C1258.82475,2958.23952 1263.10223,2960.02254 1267.04607,2961.77537 C1270.98991,2963.5282 1274.26628,2965.64365 1276.87529,2968.12179 C1279.48429,2970.59992 1280.78877,2973.95442 1280.78877,2978.18539 C1280.78877,2981.69104 1279.84833,2984.65267 1277.96742,2987.07037 C1276.08651,2989.48806 1273.38654,2990.69689 1269.86742,2990.69689 C1266.591,2990.69689 1263.92136,2989.57872 1261.85843,2987.34235 C1259.7955,2985.10599 1258.76405,2981.20752 1258.76405,2975.64682 L1258.76405,2972.56428 L1226,2972.56428 L1226,2977.09743 C1226,2983.86697 1226.97078,2989.54847 1228.91236,2994.14208 C1230.85394,2998.7357 1233.67526,3002.45285 1237.37641,3005.29364 C1241.07755,3008.13443 1245.62807,3010.129 1251.02809,3011.2774 C1256.42812,3012.42581 1262.64716,3013 1269.6854,3013 C1284.61132,3013 1296.01795,3009.88727 1303.90563,3003.66171 C1311.79331,2997.43614 1315.73709,2987.43309 1315.73709,2973.65223 C1315.73709,2965.79473 1314.37193,2959.41816 1311.64158,2954.52233 C1308.91123,2949.6265 1305.48318,2945.66758 1301.35731,2942.64547 C1297.23145,2939.62335 1292.80228,2937.17547 1288.06967,2935.30176 C1283.33706,2933.42805 1278.90789,2931.58458 1274.78203,2929.77131 C1270.65616,2927.95804 1267.22811,2925.81237 1264.49776,2923.33424 C1261.76741,2920.8561 1260.40225,2917.5016 1260.40225,2913.27064 C1260.40225,2910.3694 1261.25168,2907.7402 1262.95057,2905.38295 C1264.64945,2903.0257 1267.31909,2901.84709 1270.95956,2901.84709 C1274.23598,2901.84709 1276.66292,2903.20702 1278.24046,2905.92693 C1279.81799,2908.64683 1280.60675,2911.94089 1280.60675,2915.8092 L1280.60675,2918.89175 Z M1327.65056,2881.53857 L1327.65056,3011.00541 L1406.28428,3011.00541 L1406.28428,2983.44384 L1361.50675,2983.44384 L1361.50675,2957.69553 L1401.91574,2957.69553 L1401.91574,2931.22192 L1361.50675,2931.22192 L1361.50675,2909.10014 L1404.64608,2909.10014 L1404.64608,2881.53857 L1327.65056,2881.53857 Z M1452.41798,2936.29905 L1459.15281,2936.29905 C1464.00677,2936.29905 1467.58651,2934.87868 1469.89214,2932.03789 C1472.19777,2929.1971 1473.35057,2925.47995 1473.35057,2920.88633 C1473.35057,2915.44652 1472.22811,2911.57827 1469.98315,2909.28146 C1467.7382,2906.98465 1464.06745,2905.83627 1458.97079,2905.83627 L1452.41798,2905.83627 L1452.41798,2936.29905 Z M1418.5618,2881.53857 L1471.53034,2881.53857 C1477.96184,2881.53857 1483.45279,2882.38475 1488.00338,2884.07713 C1492.55396,2885.76952 1496.25505,2888.15695 1499.10675,2891.23951 C1501.95845,2894.32207 1504.02135,2897.97878 1505.29551,2902.20974 C1506.56968,2906.44071 1507.20675,2911.03426 1507.20675,2915.99053 C1507.20675,2924.69422 1505.44722,2931.70543 1501.9281,2937.02436 C1498.40898,2942.34328 1492.76634,2945.60712 1485.00001,2946.81597 L1485.00001,2947.17862 C1493.13039,2947.90393 1498.71235,2950.74468 1501.74608,2955.70095 C1504.7798,2960.65722 1506.29664,2967.4871 1506.29664,2976.1908 L1506.29664,2992.51015 C1506.29664,2994.32342 1506.35731,2996.046 1506.47866,2997.67794 C1506.60001,2999.30989 1506.78203,3000.7907 1507.02473,3002.12043 C1507.26743,3003.45016 1507.57079,3004.47767 1507.93484,3005.20298 C1508.42024,3005.92829 1508.90562,3006.62336 1509.39102,3007.28823 C1509.87642,3007.95309 1510.66517,3008.58773 1511.75731,3009.19215 L1511.75731,3011.00541 L1475.71686,3011.00541 C1474.86742,3009.31303 1474.23034,3007.31846 1473.80562,3005.02165 C1473.3809,3002.72484 1473.07753,3000.42807 1472.89551,2998.13126 C1472.71349,2995.83445 1472.59214,2993.62834 1472.53147,2991.51286 C1472.47079,2989.39737 1472.44045,2987.67479 1472.44045,2986.34506 L1472.44045,2977.64141 C1472.44045,2974.01487 1472.25843,2970.9928 1471.89439,2968.5751 C1471.53034,2966.15741 1470.89327,2964.2535 1469.98315,2962.86333 C1469.07303,2961.47315 1467.92024,2960.50609 1466.52472,2959.96211 C1465.12921,2959.41813 1463.40001,2959.14614 1461.33708,2959.14614 L1452.41798,2959.14614 L1452.41798,3011.00541 L1418.5618,3011.00541 L1418.5618,2881.53857 Z M1512.93146,2881.53857 L1540.41685,3011.00541 L1584.10225,3011.00541 L1612.13372,2881.53857 L1576.09326,2881.53857 L1562.44158,2979.09202 L1562.07753,2979.09202 L1548.42584,2881.53857 L1512.93146,2881.53857 Z M1616.22022,2881.53857 L1616.22022,3011.00541 L1650.07641,3011.00541 L1650.07641,2881.53857 L1616.22022,2881.53857 Z M1716.59663,2920.88633 L1716.59663,2928.13938 L1749.36068,2928.13938 L1749.36068,2919.9797 C1749.36068,2913.6937 1748.60226,2908.04242 1747.08539,2903.02571 C1745.56853,2898.009 1743.14159,2893.71765 1739.80449,2890.15156 C1736.4674,2886.58546 1732.12924,2883.83537 1726.78989,2881.90122 C1721.45053,2879.96706 1714.95846,2879 1707.31348,2879 C1698.57636,2879 1691.23486,2880.17861 1685.28876,2882.53586 C1679.34266,2884.89311 1674.54945,2888.73114 1670.90898,2894.05007 C1667.26851,2899.36899 1664.68989,2906.31976 1663.17302,2914.90257 C1661.65616,2923.48538 1660.89774,2933.94175 1660.89774,2946.27199 C1660.89774,2958.36046 1661.53482,2968.66572 1662.80898,2977.18809 C1664.08314,2985.71046 1666.41908,2992.66123 1669.81685,2998.0406 C1673.21462,3003.41996 1677.94715,3007.25799 1684.0146,3009.5548 C1690.08205,3011.85161 1697.84826,3013 1707.31348,3013 C1712.77418,3013 1718.08312,3012.42581 1723.24045,3011.2774 C1728.39778,3010.129 1732.97863,3007.89266 1736.98315,3004.56834 C1740.98766,3001.24401 1744.20336,2996.68068 1746.63034,2990.87821 C1749.05732,2985.07575 1750.27079,2977.64145 1750.27079,2968.5751 L1750.27079,2958.96482 L1717.50674,2958.96482 C1717.50674,2965.12994 1717.35506,2970.23724 1717.05168,2974.28687 C1716.74831,2978.33651 1716.23259,2981.57013 1715.50449,2983.98782 C1714.7764,2986.40552 1713.74495,2988.1281 1712.41011,2989.15562 C1711.07527,2990.18314 1709.37641,2990.69689 1707.31348,2990.69689 C1704.76515,2990.69689 1702.73259,2990.03203 1701.21573,2988.7023 C1699.69886,2987.37257 1698.54607,2985.01535 1697.7573,2981.63058 C1696.96853,2978.24581 1696.45281,2973.68248 1696.21011,2967.94046 C1695.96741,2962.19844 1695.84606,2954.97569 1695.84606,2946.27199 C1695.84606,2937.56829 1695.96741,2930.34554 1696.21011,2924.60352 C1696.45281,2918.8615 1696.96853,2914.29817 1697.7573,2910.9134 C1698.54607,2907.52863 1699.69886,2905.17141 1701.21573,2903.84168 C1702.73259,2902.51195 1704.76515,2901.84709 1707.31348,2901.84709 C1710.5899,2901.84709 1712.95617,2903.1768 1714.41236,2905.83627 C1715.86854,2908.49573 1716.59663,2913.51237 1716.59663,2920.88633 Z M1762.36628,2881.53857 L1762.36628,3011.00541 L1841,3011.00541 L1841,2983.44384 L1796.22247,2983.44384 L1796.22247,2957.69553 L1836.63146,2957.69553 L1836.63146,2931.22192 L1796.22247,2931.22192 L1796.22247,2909.10014 L1839.3618,2909.10014 L1839.3618,2881.53857 L1762.36628,2881.53857 Z" id="service_w"></path>
        </g>
    </g>
</svg>