<?xml version="1.0" encoding="UTF-8"?>
<svg width="407px" height="130px" viewBox="0 0 407 130" version="1.1" xmlns="http://www.w3.org/2000/svg" xmlns:xlink="http://www.w3.org/1999/xlink">
    <!-- Generator: Sketch 47.1 (45422) - http://www.bohemiancoding.com/sketch -->
    <title>team_w</title>
    <desc>Created with Sketch.</desc>
    <defs></defs>
    <g id="Page-1" stroke="none" stroke-width="1" fill="none" fill-rule="evenodd">
        <g id="Artboard-Copy" transform="translate(-1431.000000, -1508.000000)" fill="#FFFFFF">
            <path d="M1456.10379,1536.76751 L1456.10379,1638 L1489.93933,1638 L1489.93933,1536.76751 L1515.40694,1536.76751 L1515.40694,1508 L1431,1508 L1431,1536.76751 L1456.10379,1536.76751 Z M1522.94727,1508 L1522.94727,1638 L1601.53304,1638 L1601.53304,1610.32493 L1556.78281,1610.32493 L1556.78281,1584.47059 L1597.16716,1584.47059 L1597.16716,1557.88796 L1556.78281,1557.88796 L1556.78281,1535.67507 L1599.89583,1535.67507 L1599.89583,1508 L1522.94727,1508 Z M1656.18845,1534.58263 L1646.91096,1589.7507 L1665.82976,1589.7507 L1656.55227,1534.58263 L1656.18845,1534.58263 Z M1677.65401,1508 L1709.30661,1638 L1673.28813,1638 L1669.83181,1615.2409 L1642.90891,1615.2409 L1639.45259,1638 L1603.97985,1638 L1635.08671,1508 L1677.65401,1508 Z M1713.57253,1508 L1713.57253,1638 L1745.22513,1638 L1745.22513,1541.13725 L1745.58896,1541.13725 L1763.5982,1638 L1787.97434,1638 L1805.98358,1541.13725 L1806.3474,1541.13725 L1806.3474,1638 L1838,1638 L1838,1508 L1789.61154,1508 L1775.96818,1585.01681 L1775.60435,1585.01681 L1761.96099,1508 L1713.57253,1508 Z" id="team_w"></path>
        </g>
    </g>
</svg>