<?xml version="1.0" encoding="UTF-8"?>
<svg width="408px" height="130px" viewBox="0 0 408 130" version="1.1" xmlns="http://www.w3.org/2000/svg" xmlns:xlink="http://www.w3.org/1999/xlink">
    <!-- Generator: Sketch 47.1 (45422) - http://www.bohemiancoding.com/sketch -->
    <title>team</title>
    <desc>Created with Sketch.</desc>
    <defs></defs>
    <g id="Page-1" stroke="none" stroke-width="1" fill="none" fill-rule="evenodd">
        <g id="Artboard" transform="translate(-1431.000000, -1872.000000)" fill="#111111">
            <path d="M1456.116,1900.756 L1456.116,2001.948 L1489.968,2001.948 L1489.968,1900.756 L1515.448,1900.756 L1515.448,1872 L1431,1872 L1431,1900.756 L1456.116,1900.756 Z M1522.992,1872 L1522.992,2001.948 L1601.616,2001.948 L1601.616,1974.284 L1556.844,1974.284 L1556.844,1948.44 L1597.248,1948.44 L1597.248,1921.868 L1556.844,1921.868 L1556.844,1899.664 L1599.978,1899.664 L1599.978,1872 L1522.992,1872 Z M1656.298,1898.572 L1647.016,1953.718 L1665.944,1953.718 L1656.662,1898.572 L1656.298,1898.572 Z M1677.774,1872 L1709.442,2001.948 L1673.406,2001.948 L1669.948,1979.198 L1643.012,1979.198 L1639.554,2001.948 L1604.064,2001.948 L1635.186,1872 L1677.774,1872 Z M1713.71,1872 L1713.71,2001.948 L1745.378,2001.948 L1745.378,1905.124 L1745.742,1905.124 L1763.76,2001.948 L1788.148,2001.948 L1806.166,1905.124 L1806.53,1905.124 L1806.53,2001.948 L1838.198,2001.948 L1838.198,1872 L1789.786,1872 L1776.136,1948.986 L1775.772,1948.986 L1762.122,1872 L1713.71,1872 Z" id="team"></path>
        </g>
    </g>
</svg>