<?xml version="1.0" encoding="UTF-8"?>
<svg width="491px" height="135px" viewBox="0 0 491 135" version="1.1" xmlns="http://www.w3.org/2000/svg" xmlns:xlink="http://www.w3.org/1999/xlink">
    <!-- Generator: Sketch 47.1 (45422) - http://www.bohemiancoding.com/sketch -->
    <title>vision</title>
    <desc>Created with Sketch.</desc>
    <defs></defs>
    <g id="Page-1" stroke="none" stroke-width="1" fill="none" fill-rule="evenodd">
        <g id="Artboard" transform="translate(-1347.000000, -739.000000)" fill="#111111">
            <path d="M1347.648,742.052 L1375.13,872 L1418.81,872 L1446.838,742.052 L1410.802,742.052 L1397.152,839.968 L1396.788,839.968 L1383.138,742.052 L1347.648,742.052 Z M1450.924,742.052 L1450.924,872 L1484.776,872 L1484.776,742.052 L1450.924,742.052 Z M1550.014,779.544 L1581.682,779.544 C1581.682,765.590597 1578.3757,755.429032 1571.763,749.059 C1565.1503,742.688968 1554.44274,739.504 1539.64,739.504 C1525.3226,739.504 1514.64537,742.961965 1507.608,749.878 C1500.57063,756.794035 1497.052,766.864601 1497.052,780.09 C1497.052,787.734038 1498.35632,793.921976 1500.965,798.654 C1503.57368,803.386024 1506.84965,807.207985 1510.793,810.12 C1514.73635,813.032015 1519.01331,815.397991 1523.624,817.218 C1528.23469,819.038009 1532.51165,820.827658 1536.455,822.587 C1540.39835,824.346342 1543.67432,826.469654 1546.283,828.957 C1548.89168,831.444346 1550.196,834.811312 1550.196,839.058 C1550.196,842.576684 1549.25568,845.549321 1547.375,847.976 C1545.49432,850.402679 1542.79468,851.616 1539.276,851.616 C1535.99998,851.616 1533.33068,850.493678 1531.268,848.249 C1529.20532,846.004322 1528.174,842.091361 1528.174,836.51 L1528.174,833.416 L1495.414,833.416 L1495.414,837.966 C1495.414,844.760701 1496.38466,850.46331 1498.326,855.074 C1500.26734,859.68469 1503.08831,863.415652 1506.789,866.267 C1510.48969,869.118348 1515.03964,871.120328 1520.439,872.273 C1525.83836,873.425672 1532.05663,874.002 1539.094,874.002 C1554.01807,874.002 1565.42329,870.877698 1573.31,864.629 C1581.19671,858.380302 1585.14,848.340069 1585.14,834.508 C1585.14,826.621294 1583.77501,820.221025 1581.045,815.307 C1578.31499,810.392975 1574.88735,806.419349 1570.762,803.386 C1566.63665,800.352651 1562.20802,797.895676 1557.476,796.015 C1552.74398,794.134324 1548.31535,792.284009 1544.19,790.464 C1540.06465,788.643991 1536.63701,786.490346 1533.907,784.003 C1531.17699,781.515654 1529.812,778.148688 1529.812,773.902 C1529.812,770.989985 1530.66132,768.351012 1532.36,765.985 C1534.05868,763.618988 1536.72798,762.436 1540.368,762.436 C1543.64402,762.436 1546.07066,763.800986 1547.648,766.531 C1549.22534,769.261014 1550.014,772.567314 1550.014,776.45 L1550.014,779.544 Z M1595.778,742.052 L1595.778,872 L1629.63,872 L1629.63,742.052 L1595.778,742.052 Z M1675.394,807.026 C1675.394,815.762044 1675.51533,823.011638 1675.758,828.775 C1676.00067,834.538362 1676.51633,839.11865 1677.305,842.516 C1678.09367,845.91335 1679.24633,848.279327 1680.763,849.614 C1682.27967,850.948673 1684.31199,851.616 1686.86,851.616 C1689.40801,851.616 1691.44033,850.948673 1692.957,849.614 C1694.47367,848.279327 1695.62633,845.91335 1696.415,842.516 C1697.20367,839.11865 1697.71933,834.538362 1697.962,828.775 C1698.20467,823.011638 1698.326,815.762044 1698.326,807.026 C1698.326,798.289956 1698.20467,791.040362 1697.962,785.277 C1697.71933,779.513638 1697.20367,774.93335 1696.415,771.536 C1695.62633,768.13865 1694.47367,765.772673 1692.957,764.438 C1691.44033,763.103327 1689.40801,762.436 1686.86,762.436 C1684.31199,762.436 1682.27967,763.103327 1680.763,764.438 C1679.24633,765.772673 1678.09367,768.13865 1677.305,771.536 C1676.51633,774.93335 1676.00067,779.513638 1675.758,785.277 C1675.51533,791.040362 1675.394,798.289956 1675.394,807.026 Z M1640.45,807.026 C1640.45,794.892606 1641.23866,784.549043 1642.816,775.995 C1644.39334,767.440957 1647.00198,760.46436 1650.642,755.065 C1654.28202,749.66564 1659.07464,745.722346 1665.02,743.235 C1670.96536,740.747654 1678.24529,739.504 1686.86,739.504 C1695.47471,739.504 1702.75464,740.747654 1708.7,743.235 C1714.64536,745.722346 1719.43798,749.66564 1723.078,755.065 C1726.71802,760.46436 1729.32666,767.440957 1730.904,775.995 C1732.48134,784.549043 1733.27,794.892606 1733.27,807.026 C1733.27,819.159394 1732.48134,829.502957 1730.904,838.057 C1729.32666,846.611043 1726.71802,853.58764 1723.078,858.987 C1719.43798,864.38636 1714.64536,868.238655 1708.7,870.544 C1702.75464,872.849345 1695.47471,874.002 1686.86,874.002 C1678.24529,874.002 1670.96536,872.849345 1665.02,870.544 C1659.07464,868.238655 1654.28202,864.38636 1650.642,858.987 C1647.00198,853.58764 1644.39334,846.611043 1642.816,838.057 C1641.23866,829.502957 1640.45,819.159394 1640.45,807.026 Z M1745.364,742.052 L1745.364,872 L1777.032,872 L1777.032,791.738 L1777.396,791.738 L1799.964,872 L1837.092,872 L1837.092,742.052 L1805.424,742.052 L1805.424,822.132 L1805.06,822.132 L1783.22,742.052 L1745.364,742.052 Z" id="vision"></path>
        </g>
    </g>
</svg>