<?xml version="1.0" encoding="UTF-8"?>
<svg width="489px" height="134px" viewBox="0 0 489 134" version="1.1" xmlns="http://www.w3.org/2000/svg" xmlns:xlink="http://www.w3.org/1999/xlink">
    <!-- Generator: Sketch 47.1 (45422) - http://www.bohemiancoding.com/sketch -->
    <title>vision_w</title>
    <desc>Created with Sketch.</desc>
    <defs></defs>
    <g id="Page-1" stroke="none" stroke-width="1" fill="none" fill-rule="evenodd">
        <g id="Artboard-Copy" transform="translate(-1348.000000, -740.000000)" fill="#FFFFFF">
            <path d="M1348,742.538566 L1375.45707,872.005413 L1419.09745,872.005413 L1447.10002,742.538566 L1411.09671,742.538566 L1397.45909,840.092016 L1397.09542,840.092016 L1383.45781,742.538566 L1348,742.538566 Z M1451.18231,742.538566 L1451.18231,872.005413 L1485.0036,872.005413 L1485.0036,742.538566 L1451.18231,742.538566 Z M1550.18242,779.891746 L1581.8217,779.891746 C1581.8217,765.990007 1578.51839,755.866067 1571.91169,749.519621 C1565.30499,743.173175 1554.60715,740 1539.81783,740 C1525.51342,740 1514.84588,743.445162 1507.81489,750.335589 C1500.78391,757.226016 1497.26847,767.259294 1497.26847,780.435724 C1497.26847,788.051459 1498.5716,794.216485 1501.17792,798.930988 C1503.78423,803.64549 1507.05723,807.453301 1510.997,810.354533 C1514.93678,813.255766 1519.20986,815.612981 1523.81636,817.426252 C1528.42287,819.239522 1532.69595,821.022544 1536.63572,822.775372 C1540.5755,824.5282 1543.84849,826.64365 1546.45481,829.121786 C1549.06112,831.599922 1550.36426,834.954422 1550.36426,839.185386 C1550.36426,842.691041 1549.42479,845.652672 1547.54582,848.070365 C1545.66685,850.488059 1542.96966,851.696888 1539.45416,851.696888 C1536.18112,851.696888 1533.51423,850.578721 1531.45343,848.342355 C1529.39262,846.105988 1528.36224,842.207515 1528.36224,836.64682 L1528.36224,833.564276 L1495.63195,833.564276 L1495.63195,838.097429 C1495.63195,844.866971 1496.60173,850.548466 1498.54131,855.142084 C1500.48089,859.735702 1503.29931,863.45285 1506.99663,866.29364 C1510.69396,869.13443 1515.23979,871.128997 1520.63425,872.277402 C1526.02871,873.425806 1532.24134,874 1539.27233,874 C1554.18287,874 1565.57774,870.887266 1573.45729,864.661705 C1581.33684,858.436144 1585.27656,848.433086 1585.27656,834.652233 C1585.27656,826.794728 1583.91281,820.418157 1581.18527,815.522327 C1578.45774,810.626498 1575.03321,806.667584 1570.9116,803.645467 C1566.78999,800.62335 1562.36539,798.175472 1557.63765,796.301759 C1552.90992,794.428047 1548.48532,792.584583 1544.36371,790.771313 C1540.24209,788.958042 1536.81757,786.812371 1534.09003,784.334235 C1531.3625,781.856099 1529.99875,778.5016 1529.99875,774.270636 C1529.99875,771.369404 1530.8473,768.740201 1532.54444,766.38295 C1534.24157,764.025699 1536.90846,762.847091 1540.54517,762.847091 C1543.81822,762.847091 1546.24266,764.207023 1547.81857,766.926928 C1549.39448,769.646834 1550.18242,772.940892 1550.18242,776.809202 L1550.18242,779.891746 Z M1595.90491,742.538566 L1595.90491,872.005413 L1629.7262,872.005413 L1629.7262,742.538566 L1595.90491,742.538566 Z M1675.44868,807.271989 C1675.44868,815.975686 1675.56991,823.198438 1675.81235,828.94046 C1676.0548,834.682482 1676.57,839.245811 1677.35795,842.630582 C1678.14591,846.015353 1679.29752,848.372569 1680.81281,849.7023 C1682.32811,851.032032 1684.35858,851.696888 1686.90428,851.696888 C1689.44998,851.696888 1691.48045,851.032032 1692.99575,849.7023 C1694.51105,848.372569 1695.66266,846.015353 1696.45062,842.630582 C1697.23857,839.245811 1697.75376,834.682482 1697.99621,828.94046 C1698.23866,823.198438 1698.35988,815.975686 1698.35988,807.271989 C1698.35988,798.568292 1698.23866,791.345541 1697.99621,785.603518 C1697.75376,779.861496 1697.23857,775.298168 1696.45062,771.913396 C1695.66266,768.528625 1694.51105,766.171409 1692.99575,764.841678 C1691.48045,763.511946 1689.44998,762.847091 1686.90428,762.847091 C1684.35858,762.847091 1682.32811,763.511946 1680.81281,764.841678 C1679.29752,766.171409 1678.14591,768.528625 1677.35795,771.913396 C1676.57,775.298168 1676.0548,779.861496 1675.81235,785.603518 C1675.56991,791.345541 1675.44868,798.568292 1675.44868,807.271989 Z M1640.53638,807.271989 C1640.53638,795.183521 1641.32433,784.878256 1642.90024,776.355886 C1644.47615,767.833516 1647.08242,760.882751 1650.71914,755.503383 C1654.35585,750.124015 1659.14413,746.195321 1665.0841,743.717185 C1671.02407,741.239049 1678.29739,740 1686.90428,740 C1695.51118,740 1702.7845,741.239049 1708.72447,743.717185 C1714.66444,746.195321 1719.45271,750.124015 1723.08943,755.503383 C1726.72614,760.882751 1729.33242,767.833516 1730.90833,776.355886 C1732.48424,784.878256 1733.27218,795.183521 1733.27218,807.271989 C1733.27218,819.360457 1732.48424,829.665722 1730.90833,838.188092 C1729.33242,846.710462 1726.72614,853.661227 1723.08943,859.040595 C1719.45271,864.419964 1714.66444,868.257995 1708.72447,870.554804 C1702.7845,872.851613 1695.51118,874 1686.90428,874 C1678.29739,874 1671.02407,872.851613 1665.0841,870.554804 C1659.14413,868.257995 1654.35585,864.419964 1650.71914,859.040595 C1647.08242,853.661227 1644.47615,846.710462 1642.90024,838.188092 C1641.32433,829.665722 1640.53638,819.360457 1640.53638,807.271989 Z M1745.35521,742.538566 L1745.35521,872.005413 L1776.99448,872.005413 L1776.99448,792.040595 L1777.35815,792.040595 L1799.90568,872.005413 L1837,872.005413 L1837,742.538566 L1805.36073,742.538566 L1805.36073,822.322057 L1804.99706,822.322057 L1783.17687,742.538566 L1745.35521,742.538566 Z" id="vision_w"></path>
        </g>
    </g>
</svg>