<?xml version="1.0" encoding="utf-8"?>
<!-- Generator: Adobe Illustrator 20.1.0, SVG Export Plug-In . SVG Version: 6.00 Build 0)  -->
<svg version="1.1" id="레이어_1" xmlns="http://www.w3.org/2000/svg" xmlns:xlink="http://www.w3.org/1999/xlink" x="0px"
	 y="0px" viewBox="0 0 500 500" style="enable-background:new 0 0 500 500;" xml:space="preserve">
<style type="text/css">
	.st0{fill:#3F3F3F;}
	.st1{fill:#FFFFFF;}
</style>
<g>
	<g>
		<path class="st0" d="M247.1,399.9c-5.2,0-10.3-1.4-14.8-4l-104.5-60.5c-9.1-5.3-14.7-15-14.7-25.5V188.8
			c0-10.5,5.6-20.3,14.7-25.5l104.5-60.5c4.5-2.6,9.6-4,14.8-4s10.3,1.4,14.8,4l104.5,60.5c9.1,5.3,14.7,15,14.7,25.5v121.1
			c0,10.5-5.6,20.3-14.7,25.5l-104.5,60.5C257.4,398.5,252.3,399.9,247.1,399.9z"/>
		<path class="st0" d="M247.1,99.3c5.1,0,10.1,1.3,14.5,3.9l104.5,60.5c8.9,5.2,14.5,14.8,14.5,25.1v121.1
			c0,10.3-5.5,19.9-14.5,25.1l-104.5,60.5c-4.4,2.6-9.4,3.9-14.5,3.9s-10.1-1.3-14.5-3.9L128,335c-8.9-5.2-14.5-14.8-14.5-25.1
			V188.8c0-10.3,5.5-19.9,14.5-25.1l104.5-60.5C237,100.7,242,99.3,247.1,99.3 M247.1,98.3c-5.2,0-10.4,1.3-15,4l-104.5,60.5
			c-9.3,5.4-15,15.3-15,26v121.1c0,10.7,5.7,20.6,15,26L232,396.3c4.6,2.7,9.8,4,15,4s10.4-1.3,15-4l104.5-60.5
			c9.3-5.4,15-15.3,15-26v-121c0-10.7-5.7-20.6-15-26L262,102.3C257.4,99.7,252.3,98.3,247.1,98.3L247.1,98.3z"/>
	</g>
</g>
<g>
	<g>
		<path class="st1" d="M261.7,350l-13.9,8c-0.9,0.5-2.1,0.5-3,0l-13.9-8c-0.9-0.5-1.5-1.5-1.5-2.6v-16.1c0-1.1,0.6-2.1,1.5-2.6
			l13.9-8c0.9-0.5,2.1-0.5,3,0l13.9,8c0.9,0.5,1.5,1.5,1.5,2.6v16.1C263.2,348.5,262.7,349.5,261.7,350z"/>
	</g>
</g>
<g>
	<path class="st1" d="M185.7,208.7v79.8c0,8.9-7.4,16.2-16.5,16.2h-1.1c-9.1,0-16.5-7.3-16.5-16.2v-79.8c0-8.9,7.4-16.2,16.5-16.2
		h1.1C178.3,192.5,185.7,199.8,185.7,208.7z"/>
</g>
<g>
	<path class="st1" d="M334.9,224.1l-67.6,39c-7.7,4.5-17.7,1.8-22.1-5.9l-0.8-1.4c-4.5-7.7-1.8-17.7,5.9-22.1l67.6-39
		c7.7-4.5,17.7-1.8,22.1,5.9l0.8,1.4C345.3,209.7,342.6,219.7,334.9,224.1z"/>
</g>
<g>
	<path class="st1" d="M250.2,263.4l67.6,39c7.7,4.5,17.7,1.8,22.1-5.9l0.8-1.4c4.5-7.7,1.8-17.7-5.9-22.1l-67.6-39
		c-7.7-4.5-17.7-1.8-22.1,5.9l-0.8,1.4C239.8,249,242.5,258.9,250.2,263.4z"/>
</g>
<g>
	<path class="st1" d="M254.9,177.6l-77.2,44.6c-8.1,4.7-18.6,1.9-23.3-6.2l0,0c-4.7-8.1-1.9-18.6,6.2-23.3l77.2-44.6
		c8.1-4.7,18.6-1.9,23.3,6.2l0,0C265.8,162.5,263,173,254.9,177.6z"/>
</g>
<g>
	<path class="st1" d="M240.3,176.8l77.2,44.6c8.1,4.7,18.6,1.9,23.3-6.2l0,0c4.7-8.1,1.9-18.6-6.2-23.3l-77.2-44.6
		c-8.1-4.7-18.6-1.9-23.3,6.2l0,0C229.3,161.6,232.1,172.1,240.3,176.8z"/>
</g>
</svg>
